<?xml version="1.0" encoding="UTF-8"?>
<svg version="1.1" xmlns="http://www.w3.org/2000/svg" width="117" height="117">
<path d="M0 0 C3.16560884 1.27564528 4.9881201 3.35789524 7.37329102 5.78466797 C7.85594421 6.27156601 8.33859741 6.75846405 8.83587646 7.26011658 C10.37117451 8.81216622 11.89569527 10.37433308 13.42016602 11.93701172 C14.46113821 12.99303528 15.50279742 14.0483821 16.54516602 15.10302734 C19.09484234 17.68572587 21.63495798 20.27760054 24.17016602 22.87451172 C28.13773776 19.60309702 31.84281668 16.25351902 35.39672852 12.53466797 C36.47954102 11.40641602 36.47954102 11.40641602 37.58422852 10.25537109 C39.07559231 8.69154704 40.557195 7.11836344 42.02954102 5.53662109 C43.10848633 4.4219043 43.10848633 4.4219043 44.20922852 3.28466797 C44.85069824 2.6054126 45.49216797 1.92615723 46.15307617 1.22631836 C48.17016602 -0.12548828 48.17016602 -0.12548828 50.78173828 0.07714844 C61.59674894 3.68767944 70.42468832 15.38495861 75.69750977 24.90966797 C82.81217587 39.23335914 83.41507616 56.59403205 78.42797852 71.69482422 C72.41744275 86.88915996 62.21797915 98.18251438 47.25219727 105.03076172 C33.78105706 110.48998552 17.73070925 111.16617955 3.98657227 106.12841797 C-12.91500658 98.60358189 -22.99508609 86.52809761 -29.88452148 69.60107422 C-34.84409872 55.2961779 -32.56724979 38.4868991 -26.54467773 24.99560547 C-22.31977216 16.53402577 -11.03717708 -0.75691915 0 0 Z " fill="#2BDD7F" transform="translate(35.829833984375,4.12548828125)"/>
<path d="M0 0 C1.4453125 1.46875 1.4453125 1.46875 3.125 3.5 C5.65605646 6.50035651 8.26750082 9.24777066 11.125 11.9375 C16.62143488 17.43393488 20.22235114 22.6183783 20.5625 30.5625 C20.23601495 36.71416561 18.60553854 41.28564546 14.31640625 45.75390625 C8.36330617 51.06688805 4.05721023 52.48026738 -3.9609375 52.3046875 C-9.40194859 51.75918767 -13.07495906 50.09353468 -16.78515625 46.05859375 C-22.4561568 38.77879872 -22.97285931 32.12682444 -22 23 C-19.20992133 15.00263166 -10.97066344 8.56888119 -5.046875 2.74609375 C-4.24008301 1.95223267 -4.24008301 1.95223267 -3.41699219 1.14233398 C-2 0 -2 0 0 0 Z " fill="#003154" transform="translate(62,29)"/>
</svg>
