<?xml version="1.0" encoding="UTF-8"?>
<svg version="1.1" xmlns="http://www.w3.org/2000/svg" width="225" height="225">
<path d="M0 0 C74.25 0 148.5 0 225 0 C225 74.25 225 148.5 225 225 C150.75 225 76.5 225 0 225 C0 150.75 0 76.5 0 0 Z " fill="#FEFEFE" transform="translate(0,0)"/>
<path d="M0 0 C27.72 0 55.44 0 84 0 C84 27.39 84 54.78 84 83 C56.28 83 28.56 83 0 83 C0 55.61 0 28.22 0 0 Z " fill="#F8F8F9" transform="translate(71,45)"/>
<path d="M0 0 C19.51412429 0 19.51412429 0 24 4 C27.63727413 7.89772092 29.31335568 11.66924191 29.625 17 C29.3154342 23.08812731 26.4804345 27.07637548 22.64453125 31.59765625 C16.02751111 37.24019837 8.60456392 35 0 35 C0 23.45 0 11.9 0 0 Z " fill="#F7F6F8" transform="translate(1,145)"/>
<path d="M0 0 C27.72 0 55.44 0 84 0 C84 27.39 84 54.78 84 83 C56.28 83 28.56 83 0 83 C0 55.61 0 28.22 0 0 Z M3 3 C3 28.74 3 54.48 3 81 C28.74 81 54.48 81 81 81 C81 55.26 81 29.52 81 3 C55.26 3 29.52 3 3 3 Z " fill="#2C1849" transform="translate(71,45)"/>
<path d="M0 0 C1.32 0 2.64 0 4 0 C4 11.88 4 23.76 4 36 C3.01 36 2.02 36 1 36 C0.505 34.02 0.505 34.02 0 32 C-0.433125 32.474375 -0.86625 32.94875 -1.3125 33.4375 C-4.37430509 36.27250472 -7.88014925 36.39635194 -11.93359375 36.3515625 C-16.26475216 35.61469245 -18.78581563 32.60051576 -21.375 29.1875 C-22.85387938 24.01142215 -22.44493052 19.72686568 -20 15 C-20.16699177 11.66016468 -20.74141116 10.30029672 -22.9375 7.75 C-28.54711596 2.99032585 -30.23976031 4.75078767 -40 4 C-40 13.57 -40 23.14 -40 33 C-27.37032032 31.9486833 -27.37032032 31.9486833 -22 29 C-21.67 30.32 -21.34 31.64 -21 33 C-29.05587876 36.8668218 -32.90215853 36 -43 36 C-43 24.45 -43 12.9 -43 1 C-23.8871822 1 -23.8871822 1 -19.37890625 4.5703125 C-14.67691734 9.44546248 -13.71591576 14.27077454 -13.765625 20.89453125 C-14.14545731 24.30669154 -15.47164903 26.94329806 -17 30 C-13.1783948 31.79840245 -10.2177461 32.61508797 -6 32 C-3.13027004 30.00366611 -1.34789235 28.52770117 -0.55078125 25.02734375 C-0.37035696 21.69882672 -0.75312901 19.40116536 -2.5 16.5625 C-6.01825161 14.36359275 -8.87476285 14.27501581 -13 14 C-13 12.68 -13 11.36 -13 10 C-7.70558305 9.49576981 -5.18586481 10.81076967 -1 14 C-0.67 9.38 -0.34 4.76 0 0 Z " fill="#137FEE" transform="translate(133,68)"/>
<path d="M0 0 C1.32 0 2.64 0 4 0 C4 11.88 4 23.76 4 36 C3.01 36 2.02 36 1 36 C0.67 34.68 0.34 33.36 0 32 C-0.433125 32.66 -0.86625 33.32 -1.3125 34 C-5.00249706 36.74604433 -7.8572214 36.61939003 -12.3671875 36.45703125 C-16.22816596 35.78680205 -17.78157318 34.14873484 -20 31 C-20.433125 30.401875 -20.86625 29.80375 -21.3125 29.1875 C-22.38795078 25.76561115 -22.5609599 22.51444755 -22 19 C-19.98497111 15.24787724 -18.54533858 13.36355905 -15 11 C-12.66015625 10.69921875 -12.66015625 10.69921875 -10.0625 10.6875 C-9.20785156 10.67074219 -8.35320312 10.65398437 -7.47265625 10.63671875 C-5 11 -5 11 -1 14 C-0.67 9.38 -0.34 4.76 0 0 Z " fill="#1584F5" transform="translate(133,144)"/>
<path d="M0 0 C3.125 2 3.125 2 5 4 C5.33 2.68 5.66 1.36 6 0 C6.66 0 7.32 0 8 0 C8 8.25 8 16.5 8 25 C7.34 25 6.68 25 6 25 C5.67 23.68 5.34 22.36 5 21 C4.38125 21.66 3.7625 22.32 3.125 23 C-1.23565825 25.79082128 -4.94855343 25.96025901 -10 25 C-13.11709136 23.30375149 -15.38929088 21.22141825 -17 18 C-18.03037808 8.99155166 -18.03037808 8.99155166 -15.953125 4.9765625 C-11.36758595 -0.55305812 -6.83215965 -0.82586545 0 0 Z " fill="#F8F7F8" transform="translate(51,155)"/>
<path d="M0 0 C3.125 2 3.125 2 5 4 C5.33 2.68 5.66 1.36 6 0 C6.66 0 7.32 0 8 0 C8 8.25 8 16.5 8 25 C7.34 25 6.68 25 6 25 C5.67 23.68 5.34 22.36 5 21 C4.38125 21.66 3.7625 22.32 3.125 23 C-1.23983723 25.79349583 -4.94438155 25.952976 -10 25 C-13.61706278 23.09704729 -15.68681024 20.93956929 -17 17 C-17.494097 12.89899494 -17.95235971 8.7767905 -15.953125 5.046875 C-11.3459251 -0.53596723 -6.89916052 -0.83396446 0 0 Z " fill="#F8F7F9" transform="translate(97,155)"/>
<path d="M0 0 C2.69931844 2.13434481 4.47393059 3.66884493 4.98828125 7.17578125 C5.01444791 12.22594744 4.64967445 15.83495424 1.6875 20.125 C-2.09751499 23.56592272 -6.02810657 23.63388729 -10.9375 23.48046875 C-14.35655475 22.96873523 -16.04000658 21.6815551 -18.3125 19.125 C-20.99422832 14.63954694 -21.09990659 10.21903856 -20.3125 5.125 C-18.62171514 1.70150999 -16.20365704 -0.33561547 -12.9375 -2.3125 C-7.95814371 -3.37950492 -4.38939453 -2.48456294 0 0 Z " fill="#F7FAFE" transform="translate(163.3125,156.875)"/>
<path d="M0 0 C19.51412429 0 19.51412429 0 24 4 C27.63727413 7.89772092 29.31335568 11.66924191 29.625 17 C29.3154342 23.08812731 26.4804345 27.07637548 22.64453125 31.59765625 C16.02751111 37.24019837 8.60456392 35 0 35 C0 23.45 0 11.9 0 0 Z M3 3 C3 12.57 3 22.14 3 32 C12.63825938 32.58759977 12.63825938 32.58759977 20 29 C23.9942172 24.57397553 25.26409624 22.04516527 25.14453125 16.0234375 C24.82594582 11.56324148 23.36351481 9.12507742 20.0625 6.25 C13.90670596 1.7273758 11.95987309 3 3 3 Z " fill="#0C0230" transform="translate(1,145)"/>
<path d="M0 0 C19.1128178 0 19.1128178 0 23.62109375 3.5703125 C28.40304875 8.52837349 29.22968721 13.47753125 29.16796875 20.09375 C28.96352584 22.41393929 28.28914803 24.06627796 27 26 C26.34 26 25.68 26 25 26 C24.96261719 25.04738281 24.92523438 24.09476563 24.88671875 23.11328125 C24.82097656 21.85902344 24.75523438 20.60476562 24.6875 19.3125 C24.62949219 18.07113281 24.57148437 16.82976562 24.51171875 15.55078125 C23.97496627 11.82629266 23.32381447 9.9291348 21 7 C15.10557281 2.95650161 15.10557281 2.95650161 3 3 C3 12.57 3 22.14 3 32 C15.62967968 30.9486833 15.62967968 30.9486833 21 28 C21.33 29.32 21.66 30.64 22 32 C13.94412124 35.8668218 10.09784147 35 0 35 C0 23.45 0 11.9 0 0 Z " fill="#1B073D" transform="translate(90,69)"/>
<path d="M0 0 C4.6 2.2 4.6 2.2 6 5 C6.5811138 12.08958838 6.5811138 12.08958838 4.125 15.9375 C1.40493999 18.57755824 0.49785154 18.94363945 -3.3125 19.375 C-7 19 -7 19 -9.875 16.9375 C-12.44314951 13.38741097 -13.07681675 11.37855493 -13 7 C-9.51086842 0.50299636 -7.26338252 -0.49243271 0 0 Z " fill="#F7FAFD" transform="translate(127,158)"/>
<path d="M0 0 C1.32 0 2.64 0 4 0 C4 6.93 4 13.86 4 21 C10.67083884 20.81142757 10.67083884 20.81142757 12.85546875 17.93359375 C13.29503906 17.10988281 13.73460937 16.28617188 14.1875 15.4375 C15.54296875 12.93359375 15.54296875 12.93359375 17 11 C18.32 11 19.64 11 21 11 C19.34710721 14.58126772 17.21677817 17.74410707 15 21 C14.34 21.99 13.68 22.98 13 24 C13.66 24 14.32 24 15 24 C16.7265625 26.1171875 16.7265625 26.1171875 18.625 28.875 C19.25664062 29.77992188 19.88828125 30.68484375 20.5390625 31.6171875 C22 34 22 34 22 36 C20.68 36 19.36 36 18 36 C16.33203125 34.06640625 16.33203125 34.06640625 14.8125 31.5625 C14.30332031 30.73878906 13.79414063 29.91507813 13.26953125 29.06640625 C12.85058594 28.38449219 12.43164062 27.70257813 12 27 C10.03177114 25.03177114 6.65191291 25.33751619 4 25 C4 28.63 4 32.26 4 36 C2.68 36 1.36 36 0 36 C0 24.12 0 12.24 0 0 Z " fill="#2E8FF7" transform="translate(201,144)"/>
<path d="M0 0 C3.125 2 3.125 2 5 4 C5.33 2.68 5.66 1.36 6 0 C6.66 0 7.32 0 8 0 C8 8.25 8 16.5 8 25 C7.34 25 6.68 25 6 25 C5.67 23.68 5.34 22.36 5 21 C4.38125 21.66 3.7625 22.32 3.125 23 C-1.23983723 25.79349583 -4.94438155 25.952976 -10 25 C-13.61706278 23.09704729 -15.68681024 20.93956929 -17 17 C-17.494097 12.89899494 -17.95235971 8.7767905 -15.953125 5.046875 C-11.3459251 -0.53596723 -6.89916052 -0.83396446 0 0 Z M-13 7 C-14.55024464 10.10048928 -14.28992015 12.57894218 -14 16 C-12.20437595 18.75329021 -10.94745078 20.52627461 -8 22 C-4.08906009 22.3689566 -1.66453411 22.33226705 1.875 20.5625 C4.88918414 16.92774853 5.3906748 13.66316088 5 9 C3.83333333 5.83333333 3.83333333 5.83333333 1 4 C-4.80131532 2.17426017 -8.71678997 2.31523903 -13 7 Z " fill="#291444" transform="translate(97,155)"/>
<path d="M0 0 C3.125 2 3.125 2 5 4 C5.33 2.68 5.66 1.36 6 0 C6.66 0 7.32 0 8 0 C8 8.25 8 16.5 8 25 C7.34 25 6.68 25 6 25 C5.67 23.68 5.34 22.36 5 21 C4.38125 21.66 3.7625 22.32 3.125 23 C-1.23565825 25.79082128 -4.94855343 25.96025901 -10 25 C-13.11709136 23.30375149 -15.38929088 21.22141825 -17 18 C-18.03037808 8.99155166 -18.03037808 8.99155166 -15.953125 4.9765625 C-11.36758595 -0.55305812 -6.83215965 -0.82586545 0 0 Z M-13 7 C-14.55024464 10.10048928 -14.28992015 12.57894218 -14 16 C-12.20437595 18.75329021 -10.94745078 20.52627461 -8 22 C-3.81855989 22.39447548 -1.69053952 22.45035186 1.875 20.125 C4.60044891 17.39955109 4.94669869 16.56499391 5.3125 12.6875 C5.23059699 9.01785927 5.23059699 9.01785927 3.5625 6.125 C0.41387305 3.5139435 -1.78478406 3.04096492 -5.80859375 2.7890625 C-9.14719082 3.11042478 -10.78607996 4.57852496 -13 7 Z " fill="#281546" transform="translate(51,155)"/>
<path d="M0 0 C2.69931844 2.13434481 4.47393059 3.66884493 4.98828125 7.17578125 C5.01444791 12.22594744 4.64967445 15.83495424 1.6875 20.125 C-2.09751499 23.56592272 -6.02810657 23.63388729 -10.9375 23.48046875 C-14.35655475 22.96873523 -16.04000658 21.6815551 -18.3125 19.125 C-20.99422832 14.63954694 -21.09990659 10.21903856 -20.3125 5.125 C-18.62171514 1.70150999 -16.20365704 -0.33561547 -12.9375 -2.3125 C-7.95814371 -3.37950492 -4.38939453 -2.48456294 0 0 Z M-15.25 3.125 C-17.40409963 6.25823582 -18.06101975 8.3031781 -17.79296875 12.12109375 C-16.87505124 15.94948141 -15.32954172 17.55730492 -12.3125 20.125 C-8.33609057 20.7640658 -6.14233888 20.51225814 -2.5 18.8125 C-0.09211482 17.14107792 -0.09211482 17.14107792 1.6875 14.125 C2.15112482 9.95237663 2.1369094 7.83785629 -0.125 4.25 C-2.94791576 1.50773897 -4.8024822 1.18166864 -8.6875 0.75 C-12.39957343 0.84411167 -12.39957343 0.84411167 -15.25 3.125 Z " fill="#1785F3" transform="translate(163.3125,156.875)"/>
<path d="M0 0 C3.125 1.5 3.125 1.5 5 3 C4.67 3.99 4.34 4.98 4 6 C3.4328125 5.67902344 2.865625 5.35804688 2.28125 5.02734375 C-1.43600234 3.35330717 -5.00904439 3.29700598 -9 4 C-12.31578076 6.66879915 -12.89008359 8.31607564 -13.5625 12.5 C-13.24457953 16.10709769 -13.24457953 16.10709769 -10.9375 18.9375 C-7.26441181 21.51647681 -5.40834367 21.55104296 -1 21 C1.83378132 20.1025173 1.83378132 20.1025173 4 19 C4 20.32 4 21.64 4 23 C-0.54980336 25.62690725 -4.86218336 25.68282166 -10 25 C-13.66054254 22.86468352 -15.39201638 20.85637631 -17 17 C-17.64095668 12.9113711 -17.95574033 8.77291608 -15.94921875 5.05078125 C-11.29858145 -0.61503941 -6.93992408 -0.65368202 0 0 Z " fill="#0D80F4" transform="translate(190,155)"/>
<path d="M0 0 C0.99 0 1.98 0 3 0 C3 2.97 3 5.94 3 9 C4.32 9 5.64 9 7 9 C7 9.99 7 10.98 7 12 C5.68 12 4.36 12 3 12 C3 19.26 3 26.52 3 34 C2.01 34 1.02 34 0 34 C0 26.74 0 19.48 0 12 C-1.32 12 -2.64 12 -4 12 C-4 11.01 -4 10.02 -4 9 C-2.68 9 -1.36 9 0 9 C0 6.03 0 3.06 0 0 Z " fill="#110232" transform="translate(69,146)"/>
<path d="M0 0 C0.66 0 1.32 0 2 0 C2 8.25 2 16.5 2 25 C1.34 25 0.68 25 0 25 C-0.33 23.68 -0.66 22.36 -1 21 C-1.928125 21.99 -1.928125 21.99 -2.875 23 C-7.24240721 25.79514062 -10.95182061 25.35288244 -16 25 C-16.33 24.34 -16.66 23.68 -17 23 C-16.16855469 22.82984375 -15.33710937 22.6596875 -14.48046875 22.484375 C-12.85044922 22.12085938 -12.85044922 22.12085938 -11.1875 21.75 C-10.10855469 21.51796875 -9.02960937 21.2859375 -7.91796875 21.046875 C-4.64360093 19.87213527 -3.62160146 19.03559305 -2 16 C-1.73725148 12.2558336 -1.81176203 9.56471391 -3 6 C-2.01 6 -1.02 6 0 6 C0 4.02 0 2.04 0 0 Z " fill="#1C0E3D" transform="translate(57,155)"/>
<path d="M0 0 C0.66 0 1.32 0 2 0 C2 8.25 2 16.5 2 25 C1.34 25 0.68 25 0 25 C-0.33 23.68 -0.66 22.36 -1 21 C-1.66 21.66 -2.32 22.32 -3 23 C-7.01858853 25.67905902 -9.25305716 25.32182663 -14 25 C-14 24.01 -14 23.02 -14 22 C-13.38511719 21.91363281 -12.77023438 21.82726562 -12.13671875 21.73828125 C-6.99932456 20.90324863 -6.99932456 20.90324863 -2.9375 17.875 C-1.94278877 14.82455222 -1.8878477 12.26052657 -2.02734375 9.0703125 C-1.98435627 5.8155458 -1.02500145 3.07500436 0 0 Z " fill="#170738" transform="translate(103,155)"/>
<path d="M0 0 C1.32 0 2.64 0 4 0 C4 11.88 4 23.76 4 36 C3.01 36 2.02 36 1 36 C0.67 34.68 0.34 33.36 0 32 C-0.33 32.515625 -0.66 33.03125 -1 33.5625 C-3.46229584 35.33227513 -4.25492998 35.07158882 -7.1875 34.6875 C-8.445625 34.460625 -9.70375 34.23375 -11 34 C-11 33.67 -11 33.34 -11 33 C-9.906875 32.7525 -8.81375 32.505 -7.6875 32.25 C-3.85916036 30.95225775 -2.76340368 30.52680737 -1 27 C-0.27954633 23.84881675 -0.27954633 23.84881675 0 21 C0.33 21 0.66 21 1 21 C1.33 22.65 1.66 24.3 2 26 C2.33 17.75 2.66 9.5 3 1 C2.34 1 1.68 1 1 1 C1 5.95 1 10.9 1 16 C0.34 15.67 -0.32 15.34 -1 15 C-0.67 10.05 -0.34 5.1 0 0 Z " fill="#499BF5" transform="translate(133,144)"/>
<path d="M0 0 C1.32 0 2.64 0 4 0 C4 11.88 4 23.76 4 36 C3.67 36 3.34 36 3 36 C3 24.45 3 12.9 3 1 C2.34 1 1.68 1 1 1 C1.02320313 2.04800781 1.04640625 3.09601563 1.0703125 4.17578125 C1.08907303 5.55468037 1.10727293 6.9335872 1.125 8.3125 C1.15013672 9.34793945 1.15013672 9.34793945 1.17578125 10.40429688 C1.21217794 14.17135396 1.14378864 15.78431704 -1 19 C-1.495 18.360625 -1.99 17.72125 -2.5 17.0625 C-5.98806387 14.18484731 -8.53461041 14.29769264 -13 14 C-13 12.68 -13 11.36 -13 10 C-7.70558305 9.49576981 -5.18586481 10.81076967 -1 14 C-0.67 9.38 -0.34 4.76 0 0 Z " fill="#4799F4" transform="translate(133,68)"/>
<path d="M0 0 C4.98108072 1.85342538 7.4937774 4.17634943 10.09375 8.66796875 C11.66474852 12.71058131 11.55417098 16.74080019 11 21 C10.67 21.66 10.34 22.32 10 23 C7.4375 23.625 7.4375 23.625 5 24 C5.33 23.01 5.66 22.02 6 21 C6.34023366 14.23625995 6.34023366 14.23625995 4 8 C1.47943955 5.22847788 1.47943955 5.22847788 -1 3 C-0.67 2.01 -0.34 1.02 0 0 Z " fill="#2E1C4B" transform="translate(19,146)"/>
<path d="M0 0 C6.08454043 0.11930471 6.08454043 0.11930471 8.54296875 2.484375 C12.60972409 8.06572836 13.6025395 13.16187729 13 20 C12 22.5 12 22.5 11 24 C10.34 24 9.68 24 9 24 C8.96261719 23.04738281 8.92523438 22.09476563 8.88671875 21.11328125 C8.82097656 19.85902344 8.75523438 18.60476562 8.6875 17.3125 C8.62949219 16.07113281 8.57148437 14.82976562 8.51171875 13.55078125 C7.98381396 9.88768619 7.21456172 7.92790612 5 5 C3.35394174 3.96642853 1.69036558 2.95939668 0 2 C0 1.34 0 0.68 0 0 Z " fill="#1D073B" transform="translate(106,71)"/>
<path d="M0 0 C5.61 0 11.22 0 17 0 C17.66 0.66 18.32 1.32 19 2 C15.6346364 3.12178787 12.9796245 3.16771159 9.4375 3.1875 C8.28121094 3.20167969 7.12492187 3.21585937 5.93359375 3.23046875 C3 3 3 3 1 1 C1 12.22 1 23.44 1 35 C0.67 35 0.34 35 0 35 C0 23.45 0 11.9 0 0 Z " fill="#0D0134" transform="translate(90,69)"/>
<path d="M0 0 C0 0.99 0 1.98 0 3 C-5.28 2.67 -10.56 2.34 -16 2 C-16 11.24 -16 20.48 -16 30 C-16.33 30 -16.66 30 -17 30 C-17 20.1 -17 10.2 -17 0 C-3 -1 -3 -1 0 0 Z " fill="#1B003E" transform="translate(19,146)"/>
<path d="M0 0 C0.66 0 1.32 0 2 0 C2 8.58 2 17.16 2 26 C0 25 0 25 -0.81640625 23.00390625 C-1.06261719 22.19824219 -1.30882812 21.39257812 -1.5625 20.5625 C-2.59917007 17.20847148 -2.59917007 17.20847148 -4 14 C-2.68 14.33 -1.36 14.66 0 15 C0 10.05 0 5.1 0 0 Z " fill="#007CFB" transform="translate(134,145)"/>
<path d="M0 0 C0.66 0 1.32 0 2 0 C2 11.22 2 22.44 2 34 C1.67 34 1.34 34 1 34 C-0.50581217 22.43884705 -1.28497453 11.61686433 0 0 Z " fill="#007BFC" transform="translate(134,69)"/>
<path d="M0 0 C0.66 0 1.32 0 2 0 C2.16435547 1.03060547 2.16435547 1.03060547 2.33203125 2.08203125 C2.49058594 2.98308594 2.64914063 3.88414062 2.8125 4.8125 C2.96332031 5.70582031 3.11414063 6.59914062 3.26953125 7.51953125 C4.06633115 10.22524213 4.82461402 11.25969122 7 13 C9.09989652 14.17574711 9.09989652 14.17574711 11 15 C11 15.33 11 15.66 11 16 C8.3125 16.3125 8.3125 16.3125 5 16 C2.42714276 13.827365 0.51003081 12.02006162 -1 9 C-1.18704404 6.30986661 -1.08581391 3.70313823 -1 1 C-0.67 0.67 -0.34 0.34 0 0 Z " fill="#0B81F7" transform="translate(144,163)"/>
<path d="M0 0 C0.66 0 1.32 0 2 0 C2 8.25 2 16.5 2 25 C1.34 25 0.68 25 0 25 C0 22.03 0 19.06 0 16 C-0.33 16 -0.66 16 -1 16 C-1.66 12.7 -2.32 9.4 -3 6 C-2.01 6 -1.02 6 0 6 C0 4.02 0 2.04 0 0 Z " fill="#110133" transform="translate(57,155)"/>
<path d="M0 0 C0.33 0.66 0.66 1.32 1 2 C1.66 2 2.32 2 3 2 C4.7265625 4.1171875 4.7265625 4.1171875 6.625 6.875 C7.25664062 7.77992188 7.88828125 8.68484375 8.5390625 9.6171875 C10 12 10 12 10 14 C8.68 14 7.36 14 6 14 C4.33203125 12.06640625 4.33203125 12.06640625 2.8125 9.5625 C2.30332031 8.73878906 1.79414063 7.91507813 1.26953125 7.06640625 C0.85058594 6.38449219 0.43164062 5.70257813 0 5 C-1.96822886 3.03177114 -5.34808709 3.33751619 -8 3 C-8 2.67 -8 2.34 -8 2 C-6.865625 1.855625 -5.73125 1.71125 -4.5625 1.5625 C-1.19222799 1.38828522 -1.19222799 1.38828522 0 0 Z " fill="#1383F3" transform="translate(213,166)"/>
<path d="M0 0 C-1.98 0.99 -1.98 0.99 -4 2 C-3.01 2.66 -2.02 3.32 -1 4 C-2.6396875 4.4021875 -2.6396875 4.4021875 -4.3125 4.8125 C-7.81780105 5.94132576 -8.67515074 6.45373652 -11 9 C-13.1875 9.6875 -13.1875 9.6875 -15 10 C-13.64844718 5.57673622 -11.80109562 3.59587018 -8 1 C-5.07175348 0.02391783 -3.04386724 -0.08226668 0 0 Z " fill="#288DF2" transform="translate(158,154)"/>
<path d="M0 0 C0.66 0.33 1.32 0.66 2 1 C0.66087415 5.38259368 -1.12225036 7.54093925 -5 10 C-5.99 9.67 -6.98 9.34 -8 9 C-8 8.34 -8 7.68 -8 7 C-2.52380952 2 -2.52380952 2 0 2 C0 1.34 0 0.68 0 0 Z " fill="#200B40" transform="translate(26,168)"/>
<path d="M0 0 C0.33 0 0.66 0 1 0 C1.28571429 8.57142857 1.28571429 8.57142857 -1 12 C-1.66 12 -2.32 12 -3 12 C-3 8.37 -3 4.74 -3 1 C-2.01 1.495 -2.01 1.495 -1 2 C-0.67 1.34 -0.34 0.68 0 0 Z " fill="#311A4D" transform="translate(118,83)"/>
<path d="M0 0 C3.72617422 1.24205807 5.39291457 3.1110675 8 6 C8 6.66 8 7.32 8 8 C6.68 8.33 5.36 8.66 4 9 C-0.00390625 4.60546875 -0.00390625 4.60546875 -1 3 C-0.67 2.01 -0.34 1.02 0 0 Z " fill="#2A1446" transform="translate(35,170)"/>
<path d="M0 0 C0.66 0.33 1.32 0.66 2 1 C1.265611 2.32129824 0.51183106 3.63183171 -0.25 4.9375 C-0.66765625 5.66839844 -1.0853125 6.39929688 -1.515625 7.15234375 C-3.25593617 9.31857318 -4.29561004 9.63594751 -7 10 C-6.84518205 7.29068581 -6.51827919 5.53415961 -4.59765625 3.5546875 C-3.10228292 2.32320358 -1.5537076 1.1570163 0 0 Z " fill="#2089F4" transform="translate(180,155)"/>
<path d="M0 0 C1.32 0 2.64 0 4 0 C2.50163895 3.11198065 0.80066242 6.0534615 -1 9 C-2.32 8.67 -3.64 8.34 -5 8 C-4.26829419 6.65654015 -3.51394247 5.32539416 -2.75 4 C-2.33234375 3.2575 -1.9146875 2.515 -1.484375 1.75 C-0.99453125 1.1725 -0.5046875 0.595 0 0 Z " fill="#1C86F4" transform="translate(218,155)"/>
<path d="M0 0 C2 0 2 0 4.625 2.25 C7 5 7 5 7 9 C3.15314615 7.75237172 0.97070595 6.6129609 -1 3 C-0.67 2.01 -0.34 1.02 0 0 Z " fill="#281446" transform="translate(82,171)"/>
<path d="M0 0 C0.33 0 0.66 0 1 0 C1.66 5.28 2.32 10.56 3 16 C2.34 16 1.68 16 1 16 C0.71125 15.38125 0.4225 14.7625 0.125 14.125 C-0.93720042 11.86674235 -0.93720042 11.86674235 -3 10 C-2.34 9.01 -1.68 8.02 -1 7 C-0.60612212 4.67612053 -0.26513915 2.34206251 0 0 Z " fill="#2489EF" transform="translate(133,88)"/>
<path d="M0 0 C3.375 0.3125 3.375 0.3125 7 1 C7.66 1.99 8.32 2.98 9 4 C8.01 4.99 7.02 5.98 6 7 C5.38125 6.360625 4.7625 5.72125 4.125 5.0625 C2.17402388 2.96116416 2.17402388 2.96116416 0 2 C0 1.34 0 0.68 0 0 Z " fill="#261344" transform="translate(106,71)"/>
<path d="M0 0 C0.99 0.33 1.98 0.66 3 1 C2 4 2 4 -0.25 5.3125 C-3.5837816 6.1459454 -4.99758744 5.54409789 -8 4 C-8 3.67 -8 3.34 -8 3 C-6.865625 2.690625 -5.73125 2.38125 -4.5625 2.0625 C-1.21224901 1.37075469 -1.21224901 1.37075469 0 0 Z " fill="#1A87F4" transform="translate(192,174)"/>
<path d="M0 0 C3.91402949 1.26941497 5.79072873 2.51167694 8 6 C3.78825048 6 2.9063515 5.80255323 0 3 C0 2.01 0 1.02 0 0 Z " fill="#2A1547" transform="translate(95,155)"/>
<path d="M0 0 C0.3125 2.3125 0.3125 2.3125 0 5 C-2.5 6.8125 -2.5 6.8125 -5 8 C-5 4 -5 4 -3.0625 1.75 C-1 0 -1 0 0 0 Z " fill="#240943" transform="translate(58,170)"/>
<path d="M0 0 C0.99 0 1.98 0 3 0 C3.25 6.625 3.25 6.625 1 10 C-0.60725635 6.78548731 -0.05748185 3.56387464 0 0 Z " fill="#170439" transform="translate(80,164)"/>
<path d="M0 0 C4.875 1.75 4.875 1.75 6 4 C1.74938644 5.41687119 -0.71851625 4.19320039 -5 3 C-4.360625 2.690625 -3.72125 2.38125 -3.0625 2.0625 C-1.06389179 1.1654837 -1.06389179 1.1654837 0 0 Z " fill="#238AF2" transform="translate(126,155)"/>
<path d="M0 0 C-2.55068845 2.35448165 -3.71017358 2.98327924 -7.25 3.1875 C-8.1575 3.125625 -9.065 3.06375 -10 3 C-10 2.34 -10 1.68 -10 1 C-3.71428571 -1.42857143 -3.71428571 -1.42857143 0 0 Z " fill="#027DF6" transform="translate(216,165)"/>
<path d="M0 0 C0.33 0 0.66 0 1 0 C1.125 5.75 1.125 5.75 0 8 C-0.99 8 -1.98 8 -3 8 C-1.125 1.125 -1.125 1.125 0 0 Z " fill="#027CFA" transform="translate(167,165)"/>
<path d="M0 0 C0.33 0 0.66 0 1 0 C1.0270043 1.45823212 1.04639787 2.91660675 1.0625 4.375 C1.07410156 5.18710938 1.08570312 5.99921875 1.09765625 6.8359375 C1 9 1 9 0 11 C-1.32 11 -2.64 11 -4 11 C-4 10.01 -4 9.02 -4 8 C-2.68 8 -1.36 8 0 8 C0 5.36 0 2.72 0 0 Z " fill="#0D0131" transform="translate(69,147)"/>
<path d="M0 0 C0.99 0 1.98 0 3 0 C3 2.31 3 4.62 3 7 C2.01 7 1.02 7 0 7 C0 4.69 0 2.38 0 0 Z " fill="#130038" transform="translate(34,164)"/>
<path d="M0 0 C0 0.99 0 1.98 0 3 C-0.495 2.855625 -0.99 2.71125 -1.5 2.5625 C-4.97752922 1.78005593 -8.45955123 1.41305236 -12 1 C-12 0.67 -12 0.34 -12 0 C-10.56359829 -0.19573608 -9.12580496 -0.38127816 -7.6875 -0.5625 C-6.88699219 -0.66691406 -6.08648437 -0.77132812 -5.26171875 -0.87890625 C-3 -1 -3 -1 0 0 Z " fill="#250A43" transform="translate(19,146)"/>
<path d="M0 0 C0.33 1.32 0.66 2.64 1 4 C-2.8503105 6.56687367 -4.58569763 5.83288724 -9 5 C-9 4.67 -9 4.34 -9 4 C-7.88625 3.71125 -6.7725 3.4225 -5.625 3.125 C-1.99708908 2.30758671 -1.99708908 2.30758671 0 0 Z " fill="#2E8EF0" transform="translate(131,173)"/>
<path d="M0 0 C1.98 0 3.96 0 6 0 C6.33 0.99 6.66 1.98 7 3 C4.69 3 2.38 3 0 3 C0 2.01 0 1.02 0 0 Z " fill="#160539" transform="translate(89,155)"/>
<path d="M0 0 C2.64 0 5.28 0 8 0 C8 0.66 8 1.32 8 2 C5.36 2.33 2.72 2.66 0 3 C0 2.01 0 1.02 0 0 Z " fill="#1B0A3B" transform="translate(43,155)"/>
<path d="M0 0 C0.33 0.66 0.66 1.32 1 2 C1.66 2.33 2.32 2.66 3 3 C2.01 3.66 1.02 4.32 0 5 C-0.33 4.67 -0.66 4.34 -1 4 C-3.32817964 3.63239269 -5.6618385 3.29758419 -8 3 C-8 2.67 -8 2.34 -8 2 C-6.865625 1.855625 -5.73125 1.71125 -4.5625 1.5625 C-1.19222799 1.38828522 -1.19222799 1.38828522 0 0 Z " fill="#2F90EE" transform="translate(213,166)"/>
<path d="M0 0 C2.475 0.99 2.475 0.99 5 2 C4.67 2.99 4.34 3.98 4 5 C2.68 4.34 1.36 3.68 0 3 C0 2.01 0 1.02 0 0 Z " fill="#1F86EF" transform="translate(190,156)"/>
<path d="M0 0 C1.98 0 3.96 0 6 0 C4.02 0.99 4.02 0.99 2 2 C3.32 2.66 4.64 3.32 6 4 C4.02 4 2.04 4 0 4 C0 2.68 0 1.36 0 0 Z " fill="#54A0EA" transform="translate(120,78)"/>
</svg>
