<?xml version="1.0" encoding="UTF-8"?>
<svg version="1.1" xmlns="http://www.w3.org/2000/svg" width="200" height="200">
<path d="M0 0 C66 0 132 0 200 0 C200 66 200 132 200 200 C134 200 68 200 0 200 C0 134 0 68 0 0 Z " fill="#FDFEFE" transform="translate(0,0)"/>
<path d="M0 0 C1.80746452 -0.01441132 1.80746452 -0.01441132 3.65144348 -0.02911377 C4.95973618 -0.03336365 6.26802887 -0.03761353 7.6159668 -0.04199219 C8.96876528 -0.04774464 10.32156374 -0.05350236 11.67436218 -0.05926514 C14.51321798 -0.0697757 17.35204545 -0.07561767 20.19091797 -0.07910156 C23.82258191 -0.0845798 27.4538697 -0.1085927 31.08541584 -0.13707352 C33.88131286 -0.15573173 36.67711995 -0.16090722 39.47307396 -0.16243744 C41.4611228 -0.16692482 43.44912346 -0.18555815 45.43708801 -0.20440674 C47.25873726 -0.19990509 47.25873726 -0.19990509 49.1171875 -0.1953125 C50.71697197 -0.20078094 50.71697197 -0.20078094 52.34907532 -0.20635986 C55.68032907 0.21525711 57.55112589 1.20209744 60.25268555 3.16113281 C62.39372643 6.21243659 62.47420857 8.74325809 62.37768555 12.41113281 C62.35963867 13.30316406 62.3415918 14.19519531 62.32299805 15.11425781 C62.29979492 15.78972656 62.2765918 16.46519531 62.25268555 17.16113281 C62.91655273 17.12632813 63.58041992 17.09152344 64.2644043 17.05566406 C73.3840577 16.77608345 73.3840577 16.77608345 77.25268555 20.16113281 C79.2351793 23.32203194 79.47496079 25.71467363 79.37768555 29.41113281 C79.35963867 30.30316406 79.3415918 31.19519531 79.32299805 32.11425781 C79.29979492 32.78972656 79.2765918 33.46519531 79.25268555 34.16113281 C79.90495117 34.103125 80.5572168 34.04511719 81.22924805 33.98535156 C82.10323242 33.94023438 82.9772168 33.89511719 83.87768555 33.84863281 C84.73620117 33.790625 85.5947168 33.73261719 86.47924805 33.67285156 C89.54309892 34.21226193 91.61153693 35.12623851 93.96337891 37.18367004 C97.0032572 41.84605676 96.08020892 48.09281127 96.0144043 53.47363281 C96.01590775 54.88940759 96.01934032 56.30518151 96.02461243 57.72094727 C96.02893824 60.68352815 96.01215188 63.64501839 95.97998047 66.60742188 C95.94019678 70.39755617 95.94950153 74.18564616 95.97421551 77.97584534 C95.98842451 80.89799647 95.97829199 83.81967314 95.9607029 86.74179077 C95.95486882 88.13877223 95.95613226 89.53580257 95.9647274 90.93276978 C95.97275124 92.88784936 95.9448757 94.8429758 95.91552734 96.79785156 C95.90503609 98.46400513 95.90503609 98.46400513 95.89433289 100.16381836 C95.02660136 104.21723536 93.54354538 105.69238581 90.25268555 108.16113281 C87.25537109 108.79605103 87.25537109 108.79605103 83.8894043 108.80810547 C82.62459229 108.82386627 81.35978027 108.83962708 80.05664062 108.85586548 C78.68448004 108.84691537 77.31232743 108.8366603 75.94018555 108.82519531 C74.52440983 108.82856623 73.10863694 108.83342115 71.69287109 108.83969116 C68.7304317 108.84704976 65.76874781 108.83639139 62.80639648 108.81298828 C59.01631028 108.78449904 55.22799432 108.80090875 51.43797302 108.8308506 C48.51585646 108.84895222 45.59415698 108.84315289 42.67202759 108.83021164 C41.27503243 108.82688544 39.87799893 108.83093713 38.48104858 108.84260941 C36.52602908 108.85536129 34.57087612 108.83246556 32.6159668 108.80810547 C30.94981323 108.80213852 30.94981323 108.80213852 29.25 108.79605103 C25.28569821 107.95629682 23.76502543 106.27146912 21.25268555 103.16113281 C20.7644043 100.26660156 20.7644043 100.26660156 20.94018555 97.34863281 C20.98530273 96.3728125 21.03041992 95.39699219 21.0769043 94.39160156 C21.16391602 93.28751953 21.16391602 93.28751953 21.25268555 92.16113281 C20.60041992 92.21914062 19.9481543 92.27714844 19.27612305 92.33691406 C11.246777 92.75140833 11.246777 92.75140833 7.69018555 89.78613281 C4.39720698 86.23984821 4.12975745 84.74952405 4.19018555 80.03613281 C4.19920898 79.12605469 4.20823242 78.21597656 4.2175293 77.27832031 C4.22913086 76.57964844 4.24073242 75.88097656 4.25268555 75.16113281 C3.51663086 75.21914062 2.78057617 75.27714844 2.0222168 75.33691406 C-6.02638117 75.70904211 -6.02638117 75.70904211 -9.87231445 72.78613281 C-12.59324727 68.97682687 -12.88380168 67.08195294 -12.94018555 62.4296875 C-12.95624847 61.22793884 -12.9723114 60.02619019 -12.98886108 58.7880249 C-13.03323715 53.28462883 -13.0748229 47.78136451 -13.09741211 42.27783203 C-13.11073791 39.3735393 -13.13856336 36.46995146 -13.17944336 33.56591797 C-13.22885458 30.05571746 -13.25354344 26.54615506 -13.26063919 23.03562164 C-13.27058584 21.05360758 -13.30481118 19.07176322 -13.33944702 17.09002686 C-13.3158794 7.04822198 -13.3158794 7.04822198 -10.33959961 3.35742188 C-6.60171269 0.19053256 -4.82766636 0.0309766 0 0 Z " fill="#1F61B1" transform="translate(59.747314453125,32.8388671875)"/>
<path d="M0 0 C1.80746452 -0.01441132 1.80746452 -0.01441132 3.65144348 -0.02911377 C4.95973618 -0.03336365 6.26802887 -0.03761353 7.6159668 -0.04199219 C8.96876528 -0.04774464 10.32156374 -0.05350236 11.67436218 -0.05926514 C14.51321798 -0.0697757 17.35204545 -0.07561767 20.19091797 -0.07910156 C23.82258191 -0.0845798 27.4538697 -0.1085927 31.08541584 -0.13707352 C33.88131286 -0.15573173 36.67711995 -0.16090722 39.47307396 -0.16243744 C41.4611228 -0.16692482 43.44912346 -0.18555815 45.43708801 -0.20440674 C47.25873726 -0.19990509 47.25873726 -0.19990509 49.1171875 -0.1953125 C50.71697197 -0.20078094 50.71697197 -0.20078094 52.34907532 -0.20635986 C55.73351642 0.22198872 57.55866541 1.08464244 60.25268555 3.16113281 C62.39372643 6.21243659 62.47420857 8.74325809 62.37768555 12.41113281 C62.35963867 13.30316406 62.3415918 14.19519531 62.32299805 15.11425781 C62.29979492 15.78972656 62.2765918 16.46519531 62.25268555 17.16113281 C61.61232864 17.16255783 60.97197174 17.16398285 60.31221008 17.16545105 C53.64455382 17.18514428 46.97781349 17.23941034 40.31054688 17.3137207 C37.822658 17.33691138 35.3346708 17.35129889 32.84667969 17.35668945 C29.26915128 17.36597061 25.69317176 17.40694692 22.1159668 17.45410156 C20.44852165 17.44820259 20.44852165 17.44820259 18.74739075 17.44218445 C14.16141342 17.52874414 11.09142049 17.68822362 7.05541992 19.96386719 C4.28664948 24.87446005 4.52602112 29.47475991 4.5456543 35.02441406 C4.53053299 36.17153366 4.51541168 37.31865326 4.49983215 38.50053406 C4.45690137 42.15843277 4.44811137 45.81550709 4.44018555 49.47363281 C4.41704563 51.95607669 4.39168136 54.4385009 4.36401367 56.92089844 C4.30110792 63.00098434 4.26621653 69.08074738 4.25268555 75.16113281 C2.48493237 75.22540791 0.71650732 75.27139279 -1.05200195 75.30957031 C-2.52902588 75.35090088 -2.52902588 75.35090088 -4.03588867 75.39306641 C-6.74731445 75.16113281 -6.74731445 75.16113281 -9.87231445 72.78613281 C-12.59324727 68.97682687 -12.88380168 67.08195294 -12.94018555 62.4296875 C-12.95624847 61.22793884 -12.9723114 60.02619019 -12.98886108 58.7880249 C-13.03323715 53.28462883 -13.0748229 47.78136451 -13.09741211 42.27783203 C-13.11073791 39.3735393 -13.13856336 36.46995146 -13.17944336 33.56591797 C-13.22885458 30.05571746 -13.25354344 26.54615506 -13.26063919 23.03562164 C-13.27058584 21.05360758 -13.30481118 19.07176322 -13.33944702 17.09002686 C-13.3158794 7.04822198 -13.3158794 7.04822198 -10.33959961 3.35742188 C-6.60171269 0.19053256 -4.82766636 0.0309766 0 0 Z " fill="#2062B0" transform="translate(59.747314453125,32.8388671875)"/>
<path d="M0 0 C5.0405186 -0.44826746 8.90220966 -0.49266835 13.57739258 1.60546875 C17.24418882 5.30541545 16.7471276 10.28512977 16.80802917 15.19604492 C16.79397037 16.56821143 16.77849925 17.94036408 16.76171875 19.3125 C16.7632222 20.72827478 16.76665477 22.1440487 16.77192688 23.55981445 C16.7762527 26.52239534 16.75946633 29.48388558 16.72729492 32.44628906 C16.68751123 36.23642336 16.69681598 40.02451334 16.72152996 43.81471252 C16.73573897 46.73686366 16.72560644 49.65854033 16.70801735 52.58065796 C16.70218327 53.97763942 16.70344671 55.37466976 16.71204185 56.77163696 C16.7200657 58.72671655 16.69219015 60.68184299 16.6628418 62.63671875 C16.65235054 64.30287231 16.65235054 64.30287231 16.64164734 66.00268555 C15.77391582 70.05610255 14.29085983 71.531253 11 74 C8.00268555 74.63491821 8.00268555 74.63491821 4.63671875 74.64697266 C3.37190674 74.66273346 2.10709473 74.67849426 0.80395508 74.69473267 C-0.56820551 74.68578256 -1.94035812 74.67552749 -3.3125 74.6640625 C-4.72827572 74.66743342 -6.14404861 74.67228834 -7.55981445 74.67855835 C-10.52225385 74.68591695 -13.48393774 74.67525858 -16.44628906 74.65185547 C-20.23637526 74.62336623 -24.02469123 74.63977594 -27.81471252 74.66971779 C-30.73682908 74.68781941 -33.65852857 74.68202008 -36.58065796 74.66907883 C-37.97765311 74.66575262 -39.37468661 74.66980432 -40.77163696 74.68147659 C-42.72665647 74.69422848 -44.68180943 74.67133275 -46.63671875 74.64697266 C-48.30287231 74.64100571 -48.30287231 74.64100571 -50.00268555 74.63491821 C-54.044874 73.77866535 -55.53840896 72.2748635 -58 69 C-58.48828125 66.10546875 -58.48828125 66.10546875 -58.3125 63.1875 C-58.26738281 62.21167969 -58.22226563 61.23585937 -58.17578125 60.23046875 C-58.11777344 59.49441406 -58.05976562 58.75835937 -58 58 C-57.38469925 57.99413376 -56.7693985 57.98826752 -56.13545227 57.98222351 C-49.72745056 57.9182562 -43.31994952 57.83382763 -36.91235352 57.73754883 C-34.52147017 57.70430833 -32.13050852 57.67627371 -29.73950195 57.65356445 C-26.30125581 57.62000317 -22.86372671 57.56768476 -19.42578125 57.51171875 C-17.82395744 57.50213387 -17.82395744 57.50213387 -16.18977356 57.49235535 C-9.04098355 57.47577907 -9.04098355 57.47577907 -3 54 C-1.11032743 50.91993624 -0.7355088 48.54358092 -0.68115234 44.95605469 C-0.66128265 43.95531921 -0.64141296 42.95458374 -0.62094116 41.92352295 C-0.60361435 40.31395721 -0.60361435 40.31395721 -0.5859375 38.671875 C-0.56657135 37.56773254 -0.5472052 36.46359009 -0.5272522 35.32598877 C-0.46749108 31.80073767 -0.42108436 28.27545385 -0.375 24.75 C-0.33681708 22.35936079 -0.29776517 19.96873529 -0.2578125 17.578125 C-0.16179233 11.71887174 -0.07673452 5.85953585 0 0 Z " fill="#1F62AF" transform="translate(139,67)"/>
<path d="M0 0 C1.56139206 0.0001133 1.56139206 0.0001133 3.15432739 0.00022888 C4.28144135 0.00539017 5.4085553 0.01055145 6.56982422 0.01586914 C7.72118866 0.01728409 8.8725531 0.01869904 10.05880737 0.02015686 C13.74740158 0.02576823 17.43593576 0.03832269 21.12451172 0.05102539 C23.62060459 0.05603892 26.11669842 0.06060208 28.61279297 0.06469727 C34.74172245 0.07574137 40.8706069 0.09301366 46.99951172 0.11352539 C46.99951172 5.72352539 46.99951172 11.33352539 46.99951172 17.11352539 C43.29667969 17.15219727 43.29667969 17.15219727 39.51904297 17.19165039 C37.11943319 17.23010007 34.72003617 17.27525062 32.32055664 17.32104492 C30.65724909 17.34921188 28.99380876 17.37044772 27.33032227 17.38452148 C24.93420647 17.40601131 22.53967988 17.45268827 20.14404297 17.50415039 C19.0343792 17.50599335 19.0343792 17.50599335 17.90229797 17.50787354 C14.48337071 17.60413495 12.08782153 18.06820698 9.03466797 19.63500977 C6.22126513 23.06131323 6.27068695 26.12972213 6.29248047 30.37915039 C6.27735916 31.17254822 6.26223785 31.96594604 6.24665833 32.78338623 C6.20376793 35.31038807 6.19494267 37.83619578 6.18701172 40.36352539 C6.16386824 42.079703 6.13850321 43.79585219 6.11083984 45.51196289 C6.04379988 49.71313423 6.02285921 53.91097661 5.99951172 58.11352539 C0.38951172 58.11352539 -5.22048828 58.11352539 -11.00048828 58.11352539 C-11.09939303 50.79951929 -11.1719756 43.48590281 -11.22021484 36.17138672 C-11.24032534 33.68336201 -11.26761755 31.19538453 -11.30224609 28.70751953 C-11.35078682 25.13049664 -11.37346323 21.55409888 -11.39111328 17.97680664 C-11.41175842 16.86517654 -11.43240356 15.75354645 -11.45367432 14.60823059 C-11.45591912 6.87575738 -11.45591912 6.87575738 -9.10107422 2.93457031 C-5.9017816 0.161032 -4.15348011 -0.01003256 0 0 Z " fill="#FDFEFE" transform="translate(75.00048828125,49.886474609375)"/>
<path d="M0 0 C0.76828125 -0.01417969 1.5365625 -0.02835937 2.328125 -0.04296875 C5.09326027 0.22016509 7.20050385 1.11761269 9.75 2.1875 C9.82595253 9.25326669 9.87855861 16.31892844 9.91479492 23.38500977 C9.92989816 25.78967218 9.95038208 28.19430698 9.97631836 30.59887695 C10.01263351 34.05166431 10.029711 37.50408804 10.04296875 40.95703125 C10.05845261 42.03523636 10.07393646 43.11344147 10.08988953 44.22431946 C10.09011612 45.22513046 10.09034271 46.22594147 10.09057617 47.25708008 C10.09723801 48.13866287 10.10389984 49.02024567 10.11076355 49.92854309 C9.75 52.1875 9.75 52.1875 8.41621399 53.99565125 C6.75 55.1875 6.75 55.1875 3.75 55.1875 C3.75 54.5275 3.75 53.8675 3.75 53.1875 C2.76 53.8475 1.77 54.5075 0.75 55.1875 C-1.35710144 55.42800903 -1.35710144 55.42800903 -3.81323242 55.41455078 C-4.73396042 55.41439972 -5.65468842 55.41424866 -6.60331726 55.41409302 C-7.59402725 55.40377045 -8.58473724 55.39344788 -9.60546875 55.3828125 C-11.13062859 55.37856766 -11.13062859 55.37856766 -12.68659973 55.37423706 C-15.93701908 55.36303383 -19.18716381 55.33792886 -22.4375 55.3125 C-24.63996998 55.30247039 -26.84244428 55.29334451 -29.04492188 55.28515625 C-34.44670843 55.26309405 -39.84833459 55.22961508 -45.25 55.1875 C-45.44532961 53.4175132 -45.63098882 51.64645721 -45.8125 49.875 C-45.96912109 48.39580078 -45.96912109 48.39580078 -46.12890625 46.88671875 C-46.25 44.1875 -46.25 44.1875 -45.25 41.1875 C-33.04 40.8575 -20.83 40.5275 -8.25 40.1875 C-5.62741415 34.9423283 -5.13635729 31.74219856 -5.1875 25.9296875 C-5.19128662 25.22603058 -5.19507324 24.52237366 -5.19897461 23.7973938 C-5.2111838 21.55236682 -5.22982267 19.30746866 -5.25 17.0625 C-5.27648759 14.1015662 -5.29652235 11.14069451 -5.3125 8.1796875 C-5.32410156 6.86339355 -5.33570313 5.54709961 -5.34765625 4.19091797 C-5.20047106 -0.33576243 -4.12670799 0.03416149 0 0 Z " fill="#FDFEFD" transform="translate(128.25,67.8125)"/>
<path d="M0 0 C1.98 0 3.96 0 6 0 C7 3 7 3 7 6 C7.55429688 5.65066406 8.10859375 5.30132812 8.6796875 4.94140625 C9.40414062 4.48636719 10.12859375 4.03132812 10.875 3.5625 C11.59429687 3.11003906 12.31359375 2.65757812 13.0546875 2.19140625 C16.62213795 0.00652194 18.76967865 -0.40676167 23 0 C28.70769231 3.12307692 28.70769231 3.12307692 30 7 C32.35785318 6.10664203 32.35785318 6.10664203 33.125 2.9375 C33.41375 1.968125 33.7025 0.99875 34 0 C35.65 0 37.3 0 39 0 C39.495 4.455 39.495 4.455 40 9 C40.67095703 8.13375 40.67095703 8.13375 41.35546875 7.25 C42.26232422 6.13625 42.26232422 6.13625 43.1875 5 C43.77917969 4.2575 44.37085938 3.515 44.98046875 2.75 C47 1 47 1 49.73828125 0.75 C50.85783203 0.87375 50.85783203 0.87375 52 1 C50.33248852 4.94139078 47.77289351 7.7892812 45 11 C46.70236236 14.75180831 49.00252547 17.39511164 51.7578125 20.4140625 C53 22 53 22 53 24 C50.76953125 24.28125 50.76953125 24.28125 48 24 C45.76171875 22.03125 45.76171875 22.03125 43.6875 19.5 C42.99011719 18.6646875 42.29273438 17.829375 41.57421875 16.96875 C41.05472656 16.3190625 40.53523438 15.669375 40 15 C39.67 17.64 39.34 20.28 39 23 C37.35 23 35.7 23 34 23 C33.505 19.04 33.505 19.04 33 15 C32.59007812 15.49371094 32.18015625 15.98742187 31.7578125 16.49609375 C31.21898438 17.13675781 30.68015625 17.77742188 30.125 18.4375 C29.59132813 19.07558594 29.05765625 19.71367187 28.5078125 20.37109375 C26.63938894 22.38957205 25.56769037 22.94690666 22.828125 23.203125 C17.35447498 23.30264591 13.81370644 22.88822386 9 20 C8.34 20 7.68 20 7 20 C6.34 21.32 5.68 22.64 5 24 C3.35 24 1.7 24 0 24 C0 16.08 0 8.16 0 0 Z " fill="#F0F7FA" transform="translate(59,151)"/>
<path d="M0 0 C1.60402077 -0.03385597 3.20824766 -0.05804316 4.8125 -0.078125 C5.70582031 -0.09262695 6.59914063 -0.10712891 7.51953125 -0.12207031 C10.77150553 0.03796779 12.55682091 0.8622183 15 3 C17.13647501 6.34038828 17.24352218 9.0417217 17.22705078 12.96191406 C17.22689972 14.16285706 17.22674866 15.36380005 17.22659302 16.60113525 C17.21627045 17.89291687 17.20594788 19.18469849 17.1953125 20.515625 C17.19158034 21.85512073 17.18873432 23.19461921 17.18673706 24.53411865 C17.17911657 28.05228265 17.15948187 31.5702804 17.1373291 35.08837891 C17.11683643 38.68129223 17.10772804 42.27423253 17.09765625 45.8671875 C17.07623434 52.91152617 17.04211765 59.95575221 17 67 C16.67 67 16.34 67 16 67 C15.67 51.49 15.34 35.98 15 20 C11.73118027 19.18279507 9.53000931 18.88926457 6.25 18.9375 C5.05117187 18.95103516 5.05117187 18.95103516 3.828125 18.96484375 C3.22484375 18.97644531 2.6215625 18.98804687 2 19 C2.02094727 19.96824707 2.04189453 20.93649414 2.06347656 21.93408203 C2.13618512 25.54574645 2.18191056 29.15734691 2.21972656 32.76953125 C2.23977222 34.32921244 2.26701657 35.88881913 2.30175781 37.44824219 C2.35059126 39.69745314 2.37303815 41.9456659 2.390625 44.1953125 C2.41127014 44.8861795 2.43191528 45.57704651 2.45318604 46.28884888 C2.45548374 51.31001445 1.21303941 54.17554023 -2 58 C-5.63233102 59.21077701 -8.95121987 59.12444164 -12.73046875 59.09765625 C-13.48088943 59.0962413 -14.23131012 59.09482635 -15.00447083 59.09336853 C-17.3988546 59.0877756 -19.79314453 59.07522444 -22.1875 59.0625 C-23.81184761 59.05748408 -25.43619668 59.05292134 -27.06054688 59.04882812 C-31.04040069 59.03780848 -35.02018444 59.02054873 -39 59 C-38.67 63.29 -38.34 67.58 -38 72 C-31.64624313 72.02469323 -25.29251411 72.04285678 -18.9387207 72.05493164 C-16.77660638 72.05996472 -14.61449547 72.06679169 -12.45239258 72.07543945 C-9.34715941 72.08754979 -6.2419712 72.09323852 -3.13671875 72.09765625 C-2.16788254 72.10281754 -1.19904633 72.10797882 -0.20085144 72.11329651 C1.15020943 72.11340981 1.15020943 72.11340981 2.52856445 72.11352539 C3.71770195 72.11685631 3.71770195 72.11685631 4.93086243 72.12025452 C7.19844698 72.07865777 7.19844698 72.07865777 10 71 C10 71.66 10 72.32 10 73 C10.66 73.33 11.32 73.66 12 74 C8.84700518 75.05099827 6.55905564 75.15195742 3.24682617 75.19287109 C2.0651738 75.20893402 0.88352142 75.22499695 -0.3339386 75.24154663 C-5.73312849 75.28600332 -11.13217368 75.32749036 -16.53149414 75.35009766 C-19.38045387 75.36343297 -22.22869663 75.39128036 -25.07739258 75.43212891 C-29.18322797 75.49099556 -33.28829581 75.50876457 -37.39453125 75.5234375 C-39.30260307 75.55744156 -39.30260307 75.55744156 -41.2492218 75.59213257 C-51.0975162 75.56856797 -51.0975162 75.56856797 -54.7878418 72.59228516 C-57.82436271 69.03398264 -58.12122561 67.45559722 -58.0625 62.875 C-58.05347656 61.96492188 -58.04445312 61.05484375 -58.03515625 60.1171875 C-58.02355469 59.41851562 -58.01195312 58.71984375 -58 58 C-57.05492584 57.98786972 -57.05492584 57.98786972 -56.09075928 57.97549438 C-49.53702504 57.88948059 -42.98359437 57.78997815 -36.43017578 57.68261719 C-33.98393855 57.64431866 -31.53764484 57.60946736 -29.09130859 57.578125 C-25.57629194 57.53249395 -22.06166445 57.47449543 -18.546875 57.4140625 C-17.4519574 57.40251129 -16.35703979 57.39096008 -15.22894287 57.37905884 C-13.69780853 57.3492543 -13.69780853 57.3492543 -12.13574219 57.31884766 C-11.23861511 57.30552399 -10.34148804 57.29220032 -9.41717529 57.2784729 C-6.77044112 56.97355346 -5.20030901 56.50028513 -3 55 C-0.95200832 51.99642791 -0.73436944 49.4475425 -0.68115234 45.86425781 C-0.66128265 44.84350159 -0.64141296 43.82274536 -0.62094116 42.77105713 C-0.60938995 41.67613953 -0.59783875 40.58122192 -0.5859375 39.453125 C-0.56657135 38.3267865 -0.5472052 37.200448 -0.5272522 36.03997803 C-0.46748479 32.44339566 -0.42108181 28.84678124 -0.375 25.25 C-0.33681766 22.81118398 -0.29776578 20.3723814 -0.2578125 17.93359375 C-0.16178551 11.95584856 -0.07672952 5.97802234 0 0 Z " fill="#CBE0F1" transform="translate(122,50)"/>
<path d="M0 0 C2.70552388 2.19823815 4.44778333 3.89556667 6 7 C6.31564907 11.10343791 6.26312294 13.48387423 4.375 17.1875 C2.6614984 19.8526861 2.6614984 19.8526861 3.75 22.1875 C4.1625 22.785625 4.575 23.38375 5 24 C5.33 24.99 5.66 25.98 6 27 C3.6875 27.1875 3.6875 27.1875 1 27 C0.53980469 26.51917969 0.07960938 26.03835937 -0.39453125 25.54296875 C-2.39108033 23.62414421 -3.66397202 23.50435886 -6.375 23.125 C-10.90180467 22.26240041 -13.03624652 20.61207456 -16 17 C-16.33 16.67 -16.66 16.34 -17 16 C-17.54396172 11.18460113 -17.72490311 7.24269105 -15.25 3 C-10.365482 -1.34179378 -6.21696303 -1.75094502 0 0 Z " fill="#2F66A8" transform="translate(27,152)"/>
<path d="M0 0 C1.98 0 3.96 0 6 0 C7 3 7 3 7 6 C7.55429688 5.65066406 8.10859375 5.30132812 8.6796875 4.94140625 C9.40414062 4.48636719 10.12859375 4.03132812 10.875 3.5625 C11.59429687 3.11003906 12.31359375 2.65757812 13.0546875 2.19140625 C16.62213795 0.00652194 18.76967865 -0.40676167 23 0 C26.87685679 2.08753827 29.48941618 3.77036532 31 8 C29.02 8 27.04 8 25 8 C24.67 7.34 24.34 6.68 24 6 C22.72125 5.938125 21.4425 5.87625 20.125 5.8125 C19.04605469 5.76029297 19.04605469 5.76029297 17.9453125 5.70703125 C17.30335937 5.80371094 16.66140625 5.90039062 16 6 C13.68667514 9.46998729 13.66042437 10.92509248 14 15 C14.99 16.485 14.99 16.485 16 18 C17.97747122 18.36297936 17.97747122 18.36297936 20.125 18.1875 C21.40375 18.125625 22.6825 18.06375 24 18 C24.33 17.34 24.66 16.68 25 16 C26.98 16 28.96 16 31 16 C29.59498836 19.3954448 28.11728638 21.05853217 25 23 C19.00551363 24.00897295 14.22141329 23.13284797 9 20 C8.34 20 7.68 20 7 20 C6.34 21.32 5.68 22.64 5 24 C3.35 24 1.7 24 0 24 C0 16.08 0 8.16 0 0 Z " fill="#2E66A9" transform="translate(59,151)"/>
<path d="M0 0 C0.99 0.66 1.98 1.32 3 2 C3.39440918 4.6365509 3.39440918 4.6365509 3.41992188 8.02270508 C3.43583374 9.28774368 3.45174561 10.55278229 3.46813965 11.8561554 C3.46940711 13.24394678 3.46958364 14.63173953 3.46875 16.01953125 C3.47584927 17.43959353 3.48354792 18.85965293 3.49182129 20.27970886 C3.50528485 23.25987714 3.50682759 26.23978048 3.50097656 29.2199707 C3.49509121 33.03358075 3.52561227 36.84591292 3.56609344 40.65927601 C3.5919906 43.59420076 3.5948459 46.52881914 3.59120178 49.46384239 C3.5928925 50.86924121 3.60253067 52.27465426 3.62034607 53.67994118 C3.64255898 55.64954004 3.62961546 57.61943971 3.61523438 59.58911133 C3.61728882 60.70892899 3.61934326 61.82874664 3.62145996 62.98249817 C2.78128819 67.06195627 1.3086242 68.52395253 -2 71 C-4.99731445 71.63491821 -4.99731445 71.63491821 -8.36328125 71.64697266 C-9.62809326 71.66273346 -10.89290527 71.67849426 -12.19604492 71.69473267 C-13.56820551 71.68578256 -14.94035812 71.67552749 -16.3125 71.6640625 C-17.72827572 71.66743342 -19.14404861 71.67228834 -20.55981445 71.67855835 C-23.52225385 71.68591695 -26.48393774 71.67525858 -29.44628906 71.65185547 C-33.23637526 71.62336623 -37.02469123 71.63977594 -40.81471252 71.66971779 C-43.73682908 71.68781941 -46.65852857 71.68202008 -49.58065796 71.66907883 C-50.97765311 71.66575262 -52.37468661 71.66980432 -53.77163696 71.68147659 C-55.72665647 71.69422848 -57.68180943 71.67133275 -59.63671875 71.64697266 C-61.30287231 71.64100571 -61.30287231 71.64100571 -63.00268555 71.63491821 C-67.23071371 70.73929911 -68.59241803 69.60406857 -71 66 C-71 62.37 -71 58.74 -71 55 C-44.27 54.505 -44.27 54.505 -17 54 C-17.495 54.99 -17.495 54.99 -18 56 C-34.5 56.33 -51 56.66 -68 57 C-68.73960026 64.49152482 -68.73960026 64.49152482 -66 68 C-63.1305843 68.44023626 -63.1305843 68.44023626 -59.71435547 68.34057617 C-58.7483139 68.34123329 -58.7483139 68.34123329 -57.76275635 68.34190369 C-55.63059336 68.33981094 -53.49921338 68.31645865 -51.3671875 68.29296875 C-49.89031402 68.28737448 -48.41343498 68.28310359 -46.93655396 68.28010559 C-43.04673937 68.26864335 -39.1572601 68.23916473 -35.26757812 68.20599365 C-31.29952531 68.17532222 -27.3314184 68.16160655 -23.36328125 68.14648438 C-15.57536786 68.11429599 -7.78773089 68.06308345 0 68 C0 66.35 0 64.7 0 63 C0.66 63 1.32 63 2 63 C1.89230493 55.52400509 1.77963295 48.0481025 1.66066074 40.57227802 C1.60556853 37.10070672 1.55217109 33.62912681 1.50268555 30.1574707 C1.44567955 26.16348453 1.38123262 22.1696482 1.31640625 18.17578125 C1.29969376 16.93290848 1.28298126 15.69003571 1.26576233 14.40950012 C1.2358445 12.66826118 1.2358445 12.66826118 1.20532227 10.8918457 C1.18200584 9.36295464 1.18200584 9.36295464 1.15821838 7.80317688 C1.00622378 5.11026758 0.60010647 2.62596155 0 0 Z " fill="#2C5FA1" transform="translate(152,70)"/>
<path d="M0 0 C11.36242083 -0.4940183 11.36242083 -0.4940183 14.359375 1.828125 C16 4 16 4 16.5 7 C15.90092877 10.5944274 14.7822335 11.73943528 12 14 C13.32 16.64 14.64 19.28 16 22 C13.8125 22.5 13.8125 22.5 11 22 C9.4610868 20.04575512 8.29691519 18.03371633 7.11328125 15.84765625 C6.12923023 13.84157239 6.12923023 13.84157239 4 13 C4 15.97 4 18.94 4 22 C2.68 22 1.36 22 0 22 C0 14.74 0 7.48 0 0 Z " fill="#7AC9D5" transform="translate(156,152)"/>
<path d="M0 0 C11.06557377 -0.44262295 11.06557377 -0.44262295 15 3 C17.83383285 7.51827895 17.13662466 11.80826292 17 17 C11.39 17 5.78 17 0 17 C0 11.39 0 5.78 0 0 Z " fill="#1E62B0" transform="translate(122,50)"/>
<path d="M0 0 C5.61 0 11.22 0 17 0 C17 5.28 17 10.56 17 16 C6.3611691 16.70146138 6.3611691 16.70146138 3.08984375 15.015625 C0.04615578 11.85657859 -0.26973718 8.92571835 -0.3125 4.625 C-0.209375 3.09875 -0.10625 1.5725 0 0 Z " fill="#2062B0" transform="translate(64,108)"/>
<path d="M0 0 C1.32 0 2.64 0 4 0 C4 2.97 4 5.94 4 9 C7.3 9 10.6 9 14 9 C14 6.03 14 3.06 14 0 C15.65 0 17.3 0 19 0 C19 7.59 19 15.18 19 23 C17.35 23 15.7 23 14 23 C14 19.7 14 16.4 14 13 C10.7 13 7.4 13 4 13 C4 15.97 4 18.94 4 22 C2.68 22 1.36 22 0 22 C0 14.74 0 7.48 0 0 Z " fill="#7BCFDA" transform="translate(123,152)"/>
<path d="M0 0 C4.62 0 9.24 0 14 0 C14 1.65 14 3.3 14 5 C11.03 5 8.06 5 5 5 C5 6.65 5 8.3 5 10 C7.64 10 10.28 10 13 10 C13 11.32 13 12.64 13 14 C10.36 14 7.72 14 5 14 C5 15.98 5 17.96 5 20 C7.97 20 10.94 20 14 20 C14 21.32 14 22.64 14 24 C9.38 24 4.76 24 0 24 C0 16.08 0 8.16 0 0 Z " fill="#87D2DD" transform="translate(176,151)"/>
<path d="M0 0 C1.32 0 2.64 0 4 0 C4.33 5.94 4.66 11.88 5 18 C8.465 17.505 8.465 17.505 12 17 C12.33 11.39 12.66 5.78 13 0 C14.65 0 16.3 0 18 0 C18.1083667 2.7302389 18.18746694 5.45614543 18.25 8.1875 C18.30027344 9.34088867 18.30027344 9.34088867 18.3515625 10.51757812 C18.41885708 14.4374875 18.27918483 16.5213078 16.26171875 19.98046875 C13.86864864 22.1172861 12.71220635 22.78655668 9.5625 23.125 C8.82128906 23.23070312 8.08007812 23.33640625 7.31640625 23.4453125 C3.539978 22.71932123 2.23274674 21.07197847 0 18 C-0.58912589 14.86673924 -0.47532063 11.86124981 -0.3125 8.6875 C-0.28994141 7.85154297 -0.26738281 7.01558594 -0.24414062 6.15429688 C-0.1855061 4.10208851 -0.09583215 2.05080798 0 0 Z " fill="#2E65A5" transform="translate(37,152)"/>
<path d="M0 0 C1.56139206 0.0001133 1.56139206 0.0001133 3.15432739 0.00022888 C4.28144135 0.00539017 5.4085553 0.01055145 6.56982422 0.01586914 C7.72118866 0.01728409 8.8725531 0.01869904 10.05880737 0.02015686 C13.74740158 0.02576823 17.43593576 0.03832269 21.12451172 0.05102539 C23.62060459 0.05603892 26.11669842 0.06060208 28.61279297 0.06469727 C34.74172245 0.07574137 40.8706069 0.09301366 46.99951172 0.11352539 C46.99951172 5.72352539 46.99951172 11.33352539 46.99951172 17.11352539 C35.77951172 17.11352539 24.55951172 17.11352539 12.99951172 17.11352539 C12.99951172 16.78352539 12.99951172 16.45352539 12.99951172 16.11352539 C23.88951172 16.11352539 34.77951172 16.11352539 45.99951172 16.11352539 C45.99951172 11.16352539 45.99951172 6.21352539 45.99951172 1.11352539 C39.29115761 1.13297211 32.58411043 1.18477344 25.8762207 1.26611328 C23.59601976 1.28926006 21.31571241 1.30368116 19.03540039 1.30908203 C15.75063009 1.31839545 12.46752588 1.35944111 9.18310547 1.40649414 C8.16929306 1.40256149 7.15548065 1.39862885 6.11094666 1.39457703 C0.85017696 1.5021682 -3.63198827 1.82516524 -7.77528381 5.32060242 C-10.45923054 9.24819971 -9.96405713 13.95283079 -9.90283203 18.53930664 C-9.91512344 19.64203415 -9.92741486 20.74476166 -9.94007874 21.88090515 C-9.97182535 25.39662097 -9.95552515 28.91024369 -9.93798828 32.42602539 C-9.95109598 34.81211261 -9.96733516 37.19818482 -9.98681641 39.58422852 C-10.02768689 45.42777455 -10.02547589 51.2699048 -10.00048828 57.11352539 C-5.05048828 57.11352539 -0.10048828 57.11352539 4.99951172 57.11352539 C4.99951172 46.55352539 4.99951172 35.99352539 4.99951172 25.11352539 C5.32951172 25.11352539 5.65951172 25.11352539 5.99951172 25.11352539 C5.99951172 36.00352539 5.99951172 46.89352539 5.99951172 58.11352539 C0.38951172 58.11352539 -5.22048828 58.11352539 -11.00048828 58.11352539 C-11.09939303 50.79951929 -11.1719756 43.48590281 -11.22021484 36.17138672 C-11.24032534 33.68336201 -11.26761755 31.19538453 -11.30224609 28.70751953 C-11.35078682 25.13049664 -11.37346323 21.55409888 -11.39111328 17.97680664 C-11.41175842 16.86517654 -11.43240356 15.75354645 -11.45367432 14.60823059 C-11.45591912 6.87575738 -11.45591912 6.87575738 -9.10107422 2.93457031 C-5.9017816 0.161032 -4.15348011 -0.01003256 0 0 Z " fill="#D3EAFC" transform="translate(75.00048828125,49.886474609375)"/>
<path d="M0 0 C1.15255783 0.01061211 1.15255783 0.01061211 2.32839966 0.0214386 C4.76422667 0.04925829 7.19768954 0.11196523 9.6328125 0.17578125 C11.29163328 0.20088055 12.95049038 0.22369086 14.609375 0.24414062 C18.66048052 0.29477944 22.70652532 0.39263176 26.7578125 0.48828125 C26.7578125 11.70828125 26.7578125 22.92828125 26.7578125 34.48828125 C26.4278125 34.48828125 26.0978125 34.48828125 25.7578125 34.48828125 C25.7578125 23.92828125 25.7578125 13.36828125 25.7578125 2.48828125 C21.1308621 2.58531443 16.50478733 2.68810167 11.87841797 2.80566406 C10.30525485 2.84389954 8.73200592 2.87876191 7.15869141 2.91015625 C4.89454527 2.95592547 2.63098703 3.01389886 0.3671875 3.07421875 C-0.33400208 3.08576996 -1.03519165 3.09732117 -1.75762939 3.10922241 C-5.68825894 3.22748776 -7.61377543 3.67407521 -11.2421875 5.48828125 C-11.2421875 16.70828125 -11.2421875 27.92828125 -11.2421875 39.48828125 C-1.0121875 39.81828125 9.2178125 40.14828125 19.7578125 40.48828125 C19.7578125 40.81828125 19.7578125 41.14828125 19.7578125 41.48828125 C8.5378125 41.48828125 -2.6821875 41.48828125 -14.2421875 41.48828125 C-14.38020029 36.45081426 -14.49952588 31.41993404 -14.57177734 26.38208008 C-14.60189728 24.66993966 -14.64280342 22.95795288 -14.69482422 21.24633789 C-14.76785986 18.78102714 -14.80168852 16.31775995 -14.828125 13.8515625 C-14.85909271 13.08991287 -14.89006042 12.32826324 -14.92196655 11.54353333 C-14.92456067 7.42001148 -14.4025307 5.67855684 -11.72070312 2.49609375 C-8.05255249 -0.06719754 -4.35235754 -0.15289487 0 0 Z " fill="#3668A2" transform="translate(95.2421875,66.51171875)"/>
<path d="M0 0 C1.32 0 2.64 0 4 0 C4.33 2.64 4.66 5.28 5 8 C5.44730469 7.4225 5.89460938 6.845 6.35546875 6.25 C6.96003906 5.5075 7.56460938 4.765 8.1875 4 C8.77917969 3.2575 9.37085937 2.515 9.98046875 1.75 C12 0 12 0 14.73828125 -0.25 C15.48464844 -0.1675 16.23101562 -0.085 17 0 C15.33248852 3.94139078 12.77289351 6.7892812 10 10 C11.70236236 13.75180831 14.00252547 16.39511164 16.7578125 19.4140625 C18 21 18 21 18 23 C15.76953125 23.28125 15.76953125 23.28125 13 23 C10.76171875 21.03125 10.76171875 21.03125 8.6875 18.5 C7.64142578 17.24703125 7.64142578 17.24703125 6.57421875 15.96875 C5.79498047 14.99421875 5.79498047 14.99421875 5 14 C4.67 16.64 4.34 19.28 4 22 C2.68 22 1.36 22 0 22 C0 14.74 0 7.48 0 0 Z " fill="#3067A9" transform="translate(94,152)"/>
<path d="M0 0 C1.32 0.33 2.64 0.66 4 1 C4 22.78 4 44.56 4 67 C3.34 67 2.68 67 2 67 C1.773125 67.61875 1.54625 68.2375 1.3125 68.875 C-0.43721178 71.70786669 -1.84745695 72.01329249 -5 73 C-7.87910461 73.20254517 -7.87910461 73.20254517 -11.07543945 73.13525391 C-12.87674065 73.10499619 -12.87674065 73.10499619 -14.71443176 73.0741272 C-16.00105209 73.04193085 -17.28767242 73.0097345 -18.61328125 72.9765625 C-19.95133237 72.95037275 -21.28940188 72.92510758 -22.62748718 72.90072632 C-26.13757728 72.83429643 -29.64727739 72.75535704 -33.15704346 72.67376709 C-36.74321605 72.59263013 -40.32961637 72.52338533 -43.91601562 72.453125 C-50.94427779 72.31368983 -57.97219678 72.16103143 -65 72 C-65 71.67 -65 71.34 -65 71 C-64.23214172 70.99635437 -63.46428345 70.99270874 -62.67315674 70.98895264 C-55.43377588 70.95107254 -48.19490964 70.8942207 -40.95586014 70.81609726 C-37.23422746 70.77660173 -33.51283211 70.74442382 -29.79101562 70.72900391 C-26.1986273 70.71385039 -22.60689132 70.67942976 -19.0147934 70.63169098 C-17.64494245 70.61686339 -16.27499837 70.60895819 -14.90506744 70.60811615 C-12.98510368 70.60574929 -11.06523071 70.57640188 -9.14550781 70.54589844 C-8.05296692 70.53701599 -6.96042603 70.52813354 -5.83477783 70.51898193 C-2.24795944 69.86231885 -1.07879618 68.98116627 1 66 C1.58438545 63.03358526 1.58438545 63.03358526 1.4699707 59.70263672 C1.47289627 58.4280661 1.47582184 57.15349548 1.47883606 55.84030151 C1.46172439 54.45342298 1.44402546 53.06655159 1.42578125 51.6796875 C1.4208561 50.25530453 1.41755803 48.83091508 1.41581726 47.40652466 C1.40818503 44.42559038 1.38764629 41.44513761 1.35668945 38.46435547 C1.31704316 34.63976198 1.29906835 30.81548108 1.28938007 26.99070549 C1.27941769 23.34532369 1.25952757 19.70001843 1.23828125 16.0546875 C1.2348855 15.35741421 1.23148975 14.66014091 1.2279911 13.94173813 C1.21643778 11.97397734 1.19691561 10.00626816 1.17700195 8.03857422 C1.16715775 6.91812714 1.15731354 5.79768005 1.14717102 4.64328003 C1.17660594 2.02254551 1.17660594 2.02254551 0 0 Z " fill="#C6DDF5" transform="translate(153,70)"/>
<path d="M0 0 C1.98 0 3.96 0 6 0 C7 3 7 3 7 6 C8.32 5.34 9.64 4.68 11 4 C10.67 4.99 10.34 5.98 10 7 C9.90691456 8.66458673 9.87003815 10.33281997 9.875 12 C9.87242188 12.86625 9.86984375 13.7325 9.8671875 14.625 C9.90405795 17.15011695 9.90405795 17.15011695 11 20 C9.68 20 8.36 20 7 20 C6.34 21.32 5.68 22.64 5 24 C3.35 24 1.7 24 0 24 C0 16.08 0 8.16 0 0 Z " fill="#CCDDEB" transform="translate(59,151)"/>
<path d="M0 0 C6.72 -0.64 6.72 -0.64 10 1 C11.63102777 4.26205554 11.51981506 7.43555389 11 11 C10 13 10 13 8 14 C5.21619145 14.5103649 2.77294829 14.61108632 0 14 C-2.0625 11.875 -2.0625 11.875 -3 9 C-2.76576872 5.09614534 -2.18666686 3.28000029 0 0 Z " fill="#F3F9FC" transform="translate(17,156)"/>
<path d="M0 0 C5.61 0 11.22 0 17 0 C17 16.5 17 33 17 50 C16.67 50 16.34 50 16 50 C15.67 34.49 15.34 18.98 15 3 C11.73118027 2.18279507 9.53000931 1.88926457 6.25 1.9375 C5.05117187 1.95103516 5.05117187 1.95103516 3.828125 1.96484375 C2.92320313 1.98224609 2.92320313 1.98224609 2 2 C2.02094727 2.96824707 2.04189453 3.93649414 2.06347656 4.93408203 C2.13618512 8.54574645 2.18191056 12.15734691 2.21972656 15.76953125 C2.23977222 17.32921244 2.26701657 18.88881913 2.30175781 20.44824219 C2.35059126 22.69745314 2.37303815 24.9456659 2.390625 27.1953125 C2.41127014 27.8861795 2.43191528 28.57704651 2.45318604 29.28884888 C2.45548374 34.31001445 1.21303941 37.17554023 -2 41 C-5.05919388 42.01973129 -7.12418025 42.11533602 -10.32421875 42.09765625 C-11.35224609 42.09443359 -12.38027344 42.09121094 -13.43945312 42.08789062 C-14.51130859 42.07951172 -15.58316406 42.07113281 -16.6875 42.0625 C-17.77095703 42.05798828 -18.85441406 42.05347656 -19.97070312 42.04882812 C-22.64719085 42.03703743 -25.32356777 42.02058063 -28 42 C-28 41.67 -28 41.34 -28 41 C-27.38479492 40.98018066 -26.76958984 40.96036133 -26.13574219 40.93994141 C-23.34007458 40.84450273 -20.5451349 40.73490045 -17.75 40.625 C-16.29787109 40.57859375 -16.29787109 40.57859375 -14.81640625 40.53125 C-13.88183594 40.49257812 -12.94726562 40.45390625 -11.984375 40.4140625 C-11.12553711 40.3826416 -10.26669922 40.3512207 -9.38183594 40.31884766 C-6.7775197 39.97021738 -5.17769108 39.4699708 -3 38 C-0.36783776 34.48275089 -0.65334218 30.39116093 -0.5859375 26.171875 C-0.56657135 25.42286926 -0.5472052 24.67386353 -0.5272522 23.90216064 C-0.46764284 21.51822164 -0.42114646 19.13423386 -0.375 16.75 C-0.33680299 15.13018769 -0.29775025 13.51039532 -0.2578125 11.890625 C-0.16035096 7.92718918 -0.08063723 3.96395655 0 0 Z " fill="#D7EDFB" transform="translate(122,67)"/>
<path d="M0 0 C1.21120514 -0.00615326 2.42241028 -0.01230652 3.6703186 -0.01864624 C4.96940155 -0.00427521 6.2684845 0.01009583 7.60693359 0.02490234 C8.96023381 0.02728862 10.31353738 0.0281917 11.6668396 0.02767944 C14.4963672 0.03080056 17.32538561 0.04731494 20.15478516 0.07421875 C23.78092895 0.10826322 27.40651575 0.11584511 31.03280067 0.11432838 C33.82436435 0.11487214 36.61580635 0.1258391 39.40732956 0.14033127 C41.39431022 0.14978284 43.38131641 0.15325309 45.36831665 0.15664673 C47.17566788 0.17578629 47.17566788 0.17578629 49.01953125 0.1953125 C50.61240463 0.20674789 50.61240463 0.20674789 52.23745728 0.21841431 C54.88037109 0.48583984 54.88037109 0.48583984 57.88037109 2.48583984 C57.55037109 3.14583984 57.22037109 3.80583984 56.88037109 4.48583984 C56.38537109 3.99083984 56.38537109 3.99083984 55.88037109 3.48583984 C53.94730611 3.39187927 52.01078271 3.36840467 50.07543945 3.37231445 C48.83422836 3.37238998 47.59301727 3.37246552 46.31419373 3.37254333 C44.9495337 3.37765074 43.58487407 3.38286674 42.22021484 3.38818359 C40.83158926 3.39004784 39.44296302 3.39147171 38.05433655 3.39247131 C34.39315995 3.39629598 30.73202279 3.40612581 27.07086182 3.41717529 C23.33744846 3.42739052 19.60402876 3.43196917 15.87060547 3.43701172 C8.54050933 3.44774814 1.21044573 3.46482393 -6.11962891 3.48583984 C-6.44962891 4.14583984 -6.77962891 4.80583984 -7.11962891 5.48583984 C-8.43962891 5.15583984 -9.75962891 4.82583984 -11.11962891 4.48583984 C-7.35726395 0.9862391 -5.12393779 -0.01373138 0 0 Z " fill="#5680B4" transform="translate(60.11962890625,32.51416015625)"/>
<path d="M0 0 C0.33 0.99 0.66 1.98 1 3 C1.99 3 2.98 3 4 3 C4 3.66 4 4.32 4 5 C3.01 5 2.02 5 1 5 C1 24.47 1 43.94 1 64 C-1 62 -1 62 -1.24723816 59.45042419 C-1.24581314 58.37422318 -1.24438812 57.29802216 -1.24291992 56.18920898 C-1.24599655 54.97132187 -1.24907318 53.75343475 -1.25224304 52.49864197 C-1.24534583 51.16445731 -1.2380789 49.83027453 -1.23046875 48.49609375 C-1.22927702 47.13371321 -1.22882377 45.77133184 -1.2290802 44.40895081 C-1.22751523 41.55326192 -1.2192238 38.69769838 -1.20581055 35.84204102 C-1.18880453 32.17424113 -1.18499665 28.50657886 -1.18575573 24.83874416 C-1.18548436 22.02585018 -1.18000881 19.21298653 -1.17275429 16.40010262 C-1.16956351 15.04725436 -1.16759926 13.69440265 -1.16686058 12.34155083 C-1.16470227 10.45482021 -1.15517275 8.56810231 -1.14526367 6.68139648 C-1.14145187 5.60599106 -1.13764008 4.53058563 -1.13371277 3.42259216 C-1 1 -1 1 0 0 Z " fill="#4574AB" transform="translate(48,39)"/>
<path d="M0 0 C0.66 0 1.32 0 2 0 C2 2.97 2 5.94 2 9 C5.3 8.67 8.6 8.34 12 8 C12 6.35 12 4.7 12 3 C12.33 3 12.66 3 13 3 C13.1953125 9.0546875 13.1953125 9.0546875 13 11 C12.34 11.66 11.68 12.32 11 13 C12.32 15.64 13.64 18.28 15 21 C12.8125 21.5 12.8125 21.5 10 21 C8.46394246 19.01010728 7.29500846 16.96718199 6.11328125 14.75 C5.56220703 13.88375 5.56220703 13.88375 5 13 C4.34 13 3.68 13 3 13 C2.67 15.31 2.34 17.62 2 20 C1.34 19.67 0.68 19.34 0 19 C0 12.73 0 6.46 0 0 Z " fill="#75CBD9" transform="translate(157,153)"/>
<path d="M0 0 C1.65 0 3.3 0 5 0 C5 7.59 5 15.18 5 23 C3.35 23 1.7 23 0 23 C0 15.41 0 7.82 0 0 Z " fill="#80CDD9" transform="translate(146,152)"/>
<path d="M0 0 C11.06557377 -0.44262295 11.06557377 -0.44262295 15 3 C17.83383285 7.51827895 17.13662466 11.80826292 17 17 C11.39 17 5.78 17 0 17 C0 11.39 0 5.78 0 0 Z M1 2 C0.92741054 4.18639453 0.91626217 6.37500389 0.9375 8.5625 C0.958125 10.686875 0.97875 12.81125 1 15 C5.29 15 9.58 15 14 15 C14 11.37 14 7.74 14 4 C12.35 3.67 10.7 3.34 9 3 C9 2.34 9 1.68 9 1 C4.67679914 0.49633499 4.67679914 0.49633499 1 2 Z " fill="#3869A2" transform="translate(122,50)"/>
<path d="M0 0 C1.98 0 3.96 0 6 0 C6 6.93 6 13.86 6 21 C6.66 21 7.32 21 8 21 C7.99476318 20.39937744 7.98952637 19.79875488 7.98413086 19.17993164 C7.96341986 16.47413162 7.95035875 13.76834823 7.9375 11.0625 C7.92912109 10.11697266 7.92074219 9.17144531 7.91210938 8.19726562 C7.90888672 7.29814453 7.90566406 6.39902344 7.90234375 5.47265625 C7.89710693 4.64000244 7.89187012 3.80734863 7.88647461 2.94946289 C8 1 8 1 9 0 C10.68608966 -0.07205511 12.37500659 -0.08386068 14.0625 -0.0625 C14.98160156 -0.05347656 15.90070313 -0.04445312 16.84765625 -0.03515625 C17.55792969 -0.02355469 18.26820313 -0.01195312 19 0 C19 0.33 19 0.66 19 1 C16.03 1 13.06 1 10 1 C10 8.26 10 15.52 10 23 C11.32 23.33 12.64 23.66 14 24 C12.88625 23.979375 11.7725 23.95875 10.625 23.9375 C7.16784079 23.73619282 7.16784079 23.73619282 5 25 C5 17.08 5 9.16 5 1 C3.35 1 1.7 1 0 1 C0 0.67 0 0.34 0 0 Z " fill="#D6F2F6" transform="translate(146,151)"/>
<path d="M0 0 C3.87685679 2.08753827 6.48941618 3.77036532 8 8 C6.02 8 4.04 8 2 8 C1.67 7.34 1.34 6.68 1 6 C-4.36090593 5.46326107 -4.36090593 5.46326107 -9 7.5 C-9.495 8.2425 -9.495 8.2425 -10 9 C-10 8.01 -10 7.02 -10 6 C-10.99 5.67 -11.98 5.34 -13 5 C-8.3769318 1.22854962 -6.09826148 -0.5863713 0 0 Z " fill="#3B6EAA" transform="translate(82,151)"/>
<path d="M0 0 C1.32 0 2.64 0 4 0 C4 7.26 4 14.52 4 22 C2.68 22 1.36 22 0 22 C0 14.74 0 7.48 0 0 Z " fill="#76C7D4" transform="translate(123,152)"/>
<path d="M0 0 C1.32 0 2.64 0 4 0 C4 7.26 4 14.52 4 22 C2.68 22 1.36 22 0 22 C0 14.74 0 7.48 0 0 Z " fill="#2660A4" transform="translate(60,152)"/>
<path d="M0 0 C1.32 0 2.64 0 4 0 C4 7.26 4 14.52 4 22 C2.68 22 1.36 22 0 22 C0 14.74 0 7.48 0 0 Z " fill="#2660A7" transform="translate(94,152)"/>
<path d="M0 0 C1.32 0 2.64 0 4 0 C4 6.93 4 13.86 4 21 C3.67 21 3.34 21 3 21 C2.67 18.36 2.34 15.72 2 13 C1.731875 14.093125 1.46375 15.18625 1.1875 16.3125 C-0.46341463 21.43902439 -0.46341463 21.43902439 -3 23 C-5.1875 22.6875 -5.1875 22.6875 -7 22 C-6.195625 21.54625 -5.39125 21.0925 -4.5625 20.625 C-1.91143428 19.25274335 -1.91143428 19.25274335 -1 17 C-0.76725791 14.12089412 -0.58027243 11.25853505 -0.4375 8.375 C-0.37272461 7.17230469 -0.37272461 7.17230469 -0.30664062 5.9453125 C-0.20048543 3.9637489 -0.09973145 1.98189729 0 0 Z " fill="#ECFCFE" transform="translate(55,152)"/>
<path d="M0 0 C1.32 0 2.64 0 4 0 C4.08089542 2.77141717 4.14044062 5.54047819 4.1875 8.3125 C4.22520508 9.49102539 4.22520508 9.49102539 4.26367188 10.69335938 C4.27333984 11.45068359 4.28300781 12.20800781 4.29296875 12.98828125 C4.3086792 13.68477783 4.32438965 14.38127441 4.34057617 15.09887695 C3.90238443 17.54489783 2.86562642 18.42702086 1 20 C0.09761253 17.29283758 -0.11851302 15.76223232 -0.09765625 12.98828125 C-0.09443359 12.23095703 -0.09121094 11.47363281 -0.08789062 10.69335938 C-0.07951172 9.90767578 -0.07113281 9.12199219 -0.0625 8.3125 C-0.05798828 7.51521484 -0.05347656 6.71792969 -0.04882812 5.89648438 C-0.0370585 3.93095743 -0.01912348 1.96546915 0 0 Z " fill="#2C61A2" transform="translate(51,152)"/>
<path d="M0 0 C5.61 0 11.22 0 17 0 C17 5.28 17 10.56 17 16 C5.6253406 16.49455041 5.6253406 16.49455041 2.609375 14.109375 C1 12 1 12 1 10 C4 11 4 11 6 14 C8.19454681 14.57993699 8.19454681 14.57993699 10.625 14.6875 C12.06875 14.790625 13.5125 14.89375 15 15 C15 10.38 15 5.76 15 1 C10.05 1 5.1 1 0 1 C0 0.67 0 0.34 0 0 Z " fill="#34639E" transform="translate(64,108)"/>
<path d="M0 0 C5.02705917 0.12047418 8.09872551 0.24587237 12.0625 3.5625 C12.701875 4.366875 13.34125 5.17125 14 6 C13.34 6.66 12.68 7.32 12 8 C11.60235737 9.98821313 11.26224651 11.98944339 11 14 C10.67 14 10.34 14 10 14 C9.814375 12.88625 9.62875 11.7725 9.4375 10.625 C8.963125 9.42875 8.48875 8.2325 8 7 C4.48599332 5.45913678 4.48599332 5.45913678 1 5 C2.32 4.34 3.64 3.68 5 3 C2.525 2.01 2.525 2.01 0 1 C0 0.67 0 0.34 0 0 Z " fill="#4D7DB7" transform="translate(18,151)"/>
<path d="M0 0 C4 4.45714286 4 4.45714286 4 7 C1.6875 7.1875 1.6875 7.1875 -1 7 C-2 6 -3 5 -4 4 C-7.10839021 3.2730774 -7.10839021 3.2730774 -10 3 C-9.67 2.01 -9.34 1.02 -9 0 C-3.375 -1.125 -3.375 -1.125 0 0 Z " fill="#3A72B2" transform="translate(29,172)"/>
<path d="M0 0 C1.66666667 1.66666667 3.33333333 3.33333333 5 5 C5.763125 5.721875 6.52625 6.44375 7.3125 7.1875 C9 9 9 9 9 11 C6.8125 11.375 6.8125 11.375 4 11 C2.00977164 9.16038352 0.61010101 7.20813852 -1 5 C-0.34 4.67 0.32 4.34 1 4 C0.67 2.68 0.34 1.36 0 0 Z " fill="#4071AA" transform="translate(103,164)"/>
<path d="M0 0 C2.31 0.33 4.62 0.66 7 1 C7 2.98 7 4.96 7 7 C4.69 7 2.38 7 0 7 C0 4.69 0 2.38 0 0 Z " fill="#D8F9FB" transform="translate(160,155)"/>
<path d="M0 0 C1.2065625 0.0309375 1.2065625 0.0309375 2.4375 0.0625 C2.4375 0.7225 2.4375 1.3825 2.4375 2.0625 C0.7875 2.0625 -0.8625 2.0625 -2.5625 2.0625 C-2.5625 5.0325 -2.5625 8.0025 -2.5625 11.0625 C-5.8625 11.0625 -9.1625 11.0625 -12.5625 11.0625 C-12.5625 8.0925 -12.5625 5.1225 -12.5625 2.0625 C-13.8825 1.7325 -15.2025 1.4025 -16.5625 1.0625 C-14.9125 1.0625 -13.2625 1.0625 -11.5625 1.0625 C-11.5625 4.0325 -11.5625 7.0025 -11.5625 10.0625 C-9.2525 9.4025 -6.9425 8.7425 -4.5625 8.0625 C-4.418125 6.928125 -4.27375 5.79375 -4.125 4.625 C-3.40786082 0.08311856 -3.40786082 0.08311856 0 0 Z " fill="#DAF9FC" transform="translate(139.5625,149.9375)"/>
<path d="M0 0 C0.66 0 1.32 0 2 0 C3.33257403 13.6332574 3.33257403 13.6332574 2 20 C1.34 19.67 0.68 19.34 0 19 C0 12.73 0 6.46 0 0 Z " fill="#68CEDD" transform="translate(157,153)"/>
<path d="M0 0 C0.33 0.99 0.66 1.98 1 3 C2.32 2.34 3.64 1.68 5 1 C5.185625 1.639375 5.37125 2.27875 5.5625 2.9375 C6.94246056 5.42126213 6.94246056 5.42126213 10.625 5.75 C11.73875 5.8325 12.8525 5.915 14 6 C14 6.33 14 6.66 14 7 C6.375 8 6.375 8 3 8 C0.19744677 5.0936485 0 4.21174952 0 0 Z " fill="#3E6EA8" transform="translate(10,164)"/>
<path d="M0 0 C3.3 0 6.6 0 10 0 C10 2.97 10 5.94 10 9 C9.67 9 9.34 9 9 9 C8.67 6.69 8.34 4.38 8 2 C6.35 2 4.7 2 3 2 C2.67 4.31 2.34 6.62 2 9 C1.34 9 0.68 9 0 9 C0 6.03 0 3.06 0 0 Z " fill="#DDFBFD" transform="translate(127,165)"/>
<path d="M0 0 C0.33 0 0.66 0 1 0 C1.33 6.93 1.66 13.86 2 21 C1.34 21.33 0.68 21.66 0 22 C-0.66 21.34 -1.32 20.68 -2 20 C-3.31747324 19.30251417 -4.64914193 18.63040043 -6 18 C-4.35 17.67 -2.7 17.34 -1 17 C-0.67 11.39 -0.34 5.78 0 0 Z " fill="#5281BD" transform="translate(50,152)"/>
<path d="M0 0 C1.485 0.99 1.485 0.99 3 2 C2.96726676 3.9639945 2.92936138 5.92839859 2.83984375 7.890625 C3.1057162 11.39235967 4.84345284 13.30431605 7 16 C4.10671586 14.70301056 1.95063328 13.52695675 0 11 C-0.29296875 8.30078125 -0.29296875 8.30078125 -0.1875 5.3125 C-0.16042969 4.31863281 -0.13335937 3.32476562 -0.10546875 2.30078125 C-0.07066406 1.54152344 -0.03585938 0.78226562 0 0 Z " fill="#3767A0" transform="translate(81,125)"/>
<path d="M0 0 C2.64 0 5.28 0 8 0 C8 1.32 8 2.64 8 4 C5.36 4 2.72 4 0 4 C0 2.68 0 1.36 0 0 Z " fill="#8CCDD8" transform="translate(181,161)"/>
<path d="M0 0 C0.33 0.66 0.66 1.32 1 2 C-0.36125 1.87625 -0.36125 1.87625 -1.75 1.75 C-5.04484485 1.70290285 -5.04484485 1.70290285 -7.25 3.75 C-8.83145927 5.78330477 -9.98828546 7.63933273 -11 10 C-11.2145758 6.85288821 -11.23318878 4.55382336 -10 1.625 C-6.82368122 -0.95575901 -4.00554268 -0.26265854 0 0 Z " fill="#D8EBF9" transform="translate(83,156)"/>
<path d="M0 0 C1.98 0 3.96 0 6 0 C4.54744301 3.82946843 2.57104439 5.12050295 -1 7 C-1 6.34 -1 5.68 -1 5 C-0.34 5 0.32 5 1 5 C1 4.34 1 3.68 1 3 C0.34 2.67 -0.32 2.34 -1 2 C-0.67 1.34 -0.34 0.68 0 0 Z " fill="#4773A6" transform="translate(84,167)"/>
<path d="M0 0 C-1.65 0.66 -3.3 1.32 -5 2 C-5 2.33 -5 2.66 -5 3 C-7.31 3 -9.62 3 -12 3 C-12 2.01 -12 1.02 -12 0 C-3.42857143 -1.28571429 -3.42857143 -1.28571429 0 0 Z " fill="#2961A4" transform="translate(28,171)"/>
<path d="M0 0 C0.99 0.33 1.98 0.66 3 1 C3.33 1.99 3.66 2.98 4 4 C3.01 4.495 3.01 4.495 2 5 C1.34227572 8.02934491 1.34227572 8.02934491 1 11 C0.67 11 0.34 11 0 11 C-0.309375 9.88625 -0.61875 8.7725 -0.9375 7.625 C-1.82326483 4.2054845 -1.82326483 4.2054845 -3 2 C-2.01 2 -1.02 2 0 2 C0 1.34 0 0.68 0 0 Z " fill="#4573AD" transform="translate(28,154)"/>
<path d="M0 0 C0.99 0 1.98 0 3 0 C3 2.31 3 4.62 3 7 C2.01 7.33 1.02 7.66 0 8 C-0.79953138 4.71303767 -1.09658936 3.28976808 0 0 Z " fill="#2061AB" transform="translate(11,159)"/>
<path d="M0 0 C0.58007812 0.20496094 1.16015625 0.40992187 1.7578125 0.62109375 C6.1621984 2.14009813 10.35677777 3.4047151 15 4 C15 4.33 15 4.66 15 5 C13.2507786 5.08142927 11.50045458 5.13938541 9.75 5.1875 C8.77546875 5.22230469 7.8009375 5.25710937 6.796875 5.29296875 C3.60293349 4.95840784 2.27119696 4.23334367 0 2 C0 1.34 0 0.68 0 0 Z " fill="#4978AD" transform="translate(49,103)"/>
<path d="M0 0 C2.64 0 5.28 0 8 0 C8 0.33 8 0.66 8 1 C6.35 1 4.7 1 3 1 C3 1.66 3 2.32 3 3 C5.31 3 7.62 3 10 3 C10 3.33 10 3.66 10 4 C6.7 4 3.4 4 0 4 C0 2.68 0 1.36 0 0 Z " fill="#86CDD6" transform="translate(127,161)"/>
<path d="M0 0 C0.33 0.66 0.66 1.32 1 2 C1.99 2.33 2.98 2.66 4 3 C3.01 4.32 2.02 5.64 1 7 C1 6.34 1 5.68 1 5 C0.01 5 -0.98 5 -2 5 C-2.33 5.99 -2.66 6.98 -3 8 C-2.45276317 4.62537285 -1.9451 2.91765 0 0 Z " fill="#3C6CA8" transform="translate(13,154)"/>
<path d="M0 0 C1.32 0 2.64 0 4 0 C4 0.66 4 1.32 4 2 C3.34 2 2.68 2 2 2 C2 2.66 2 3.32 2 4 C-0.97 4 -3.94 4 -7 4 C-7 3.67 -7 3.34 -7 3 C-3.535 2.505 -3.535 2.505 0 2 C0 1.34 0 0.68 0 0 Z " fill="#2662A6" transform="translate(81,170)"/>
<path d="M0 0 C1.65 0 3.3 0 5 0 C5.33 0.99 5.66 1.98 6 3 C4.02 3.33 2.04 3.66 0 4 C0 2.68 0 1.36 0 0 Z " fill="#F8FDFB" transform="translate(161,157)"/>
<path d="M0 0 C0.66 0.33 1.32 0.66 2 1 C1.34 4.3 0.68 7.6 0 11 C-2 9 -2 9 -2.25 5.5 C-2 2 -2 2 0 0 Z " fill="#CFE3F1" transform="translate(68,155)"/>
<path d="M0 0 C1.32 0 2.64 0 4 0 C4 0.66 4 1.32 4 2 C3.34 2 2.68 2 2 2 C2 3.98 2 5.96 2 8 C1.01 8.495 1.01 8.495 0 9 C0 6.03 0 3.06 0 0 Z " fill="#82C9D5" transform="translate(137,152)"/>
<path d="M0 0 C9.01531729 -0.63019694 9.01531729 -0.63019694 13.125 2 C13.74375 2.66 14.3625 3.32 15 4 C12.03 3.505 12.03 3.505 9 3 C9 2.34 9 1.68 9 1 C6.03 1 3.06 1 0 1 C0 0.67 0 0.34 0 0 Z " fill="#4774AC" transform="translate(122,50)"/>
<path d="M0 0 C4 6 4 6 4 9 C2.68 9 1.36 9 0 9 C0 6.03 0 3.06 0 0 Z " fill="#81CAD3" transform="translate(137,165)"/>
<path d="M0 0 C2.475 0.495 2.475 0.495 5 1 C5.33 1.99 5.66 2.98 6 4 C4.35 4 2.7 4 1 4 C0.67 2.68 0.34 1.36 0 0 Z " fill="#537BAD" transform="translate(27,175)"/>
<path d="M0 0 C4.95 0.99 4.95 0.99 10 2 C10 2.33 10 2.66 10 3 C8.72125 3.144375 7.4425 3.28875 6.125 3.4375 C3.74307106 3.70642746 2.15547309 3.92226346 0 5 C0 3.35 0 1.7 0 0 Z " fill="#4579B7" transform="translate(14,168)"/>
<path d="M0 0 C0.99 0.33 1.98 0.66 3 1 C0.35149008 3.64850992 -2.66206447 5.33103223 -6 7 C-4.61990379 3.66476748 -3.15049348 1.81392049 0 0 Z " fill="#3E6DA4" transform="translate(87,67)"/>
<path d="M0 0 C0.99 0.33 1.98 0.66 3 1 C3.6875 3.0625 3.6875 3.0625 4 5 C3.34 4.67 2.68 4.34 2 4 C1.67 5.65 1.34 7.3 1 9 C0.67 9 0.34 9 0 9 C0 6.03 0 3.06 0 0 Z " fill="#DDFAFC" transform="translate(160,165)"/>
</svg>
